v -37.28363195 -8.20027010 -0.67506486
v -37.28363195 -8.20027010 1.10293514
v -37.15304763 -7.59315501 -0.67506486
v -37.15304763 -7.59315501 1.10293514
v -36.65109818 -8.33632172 -0.67506486
v -36.65109818 -8.33632172 1.10293514
v -36.52051386 -7.72920664 -0.67506486
v -36.52051386 -7.72920664 1.10293514
v -18.00034419 7.16453159 -1.13188887
v -18.00034419 7.16453159 0.77211118
v -17.84090397 7.83380199 -1.13188887
v -17.84090397 7.83380199 0.77211118
v -17.08204296 6.94576478 -1.13188887
v -17.08204296 6.94576478 0.77211118
v -16.92260274 7.61503518 -1.13188887
v -16.92260274 7.61503518 0.77211118
v -15.21636481 -10.67404727 -1.41852415
v -15.21636481 -10.67404727 0.33347583
v -15.24228431 -10.09662870 -1.41852415
v -15.24228431 -10.09662870 0.33347583
v -14.60398148 -10.64655826 -1.41852415
v -14.60398148 -10.64655826 0.33347583
v -14.62990098 -10.06913968 -1.41852415
v -14.62990098 -10.06913968 0.33347583
v -17.56862447 -39.87291193 -2.19133902
v -17.56862447 -39.87291193 -0.19133902
v -16.65963879 -39.86781620 -2.19133902
v -16.65963879 -39.86781620 -0.19133902
v -17.56242999 -40.97789456 -2.19133902
v -17.56242999 -40.97789456 -0.19133902
v -16.65344432 -40.97279883 -2.19133902
v -16.65344432 -40.97279883 -0.19133902
v -30.38975368 9.59074160 -0.87702167
v -30.38975368 9.59074160 1.09797835
v -30.26709844 10.33165772 -0.87702167
v -30.26709844 10.33165772 1.09797835
v -29.37358378 9.42251938 -0.87702167
v -29.37358378 9.42251938 1.09797835
v -29.25092854 10.16343549 -0.87702167
v -29.25092854 10.16343549 1.09797835
v -40.39644782 6.65246968 -0.13268375
v -40.39644782 6.65246968 1.34831619
v -41.15007478 4.79881191 -0.13268375
v -41.15007478 4.79881191 1.34831619
v -44.78186339 8.43541336 -0.13268375
v -44.78186339 8.43541336 1.34831619
v -45.53549035 6.58175559 -0.13268375
v -45.53549035 6.58175559 1.34831619
v 0.38513805 6.07327918 -1.72864532
v 0.38513805 6.07327918 0.20035470
v 0.47723124 5.44903578 -1.72864532
v 0.47723124 5.44903578 0.20035470
v -0.21833024 5.98425089 -1.72864532
v -0.21833024 5.98425089 0.20035470
v -0.12623705 5.36000749 -1.72864532
v -0.12623705 5.36000749 0.20035470
v -19.36397540 -9.76494025 -1.24339807
v -19.36397540 -9.76494025 0.51760197
v -19.37091171 -9.06797474 -1.24339807
v -19.37091171 -9.06797474 0.51760197
v -18.86600007 -9.75998432 -1.24339807
v -18.86600007 -9.75998432 0.51760197
v -18.87293638 -9.06301881 -1.24339807
v -18.87293638 -9.06301881 0.51760197
v -26.69689939 10.92168661 -0.91357291
v -26.69689939 10.92168661 0.97642708
v -26.78464040 10.26250032 -0.91357291
v -26.78464040 10.26250032 0.97642708
v -27.42646494 11.01879546 -0.91357291
v -27.42646494 11.01879546 0.97642708
v -27.51420596 10.35960917 -0.91357291
v -27.51420596 10.35960917 0.97642708
v 21.97785847 1.15084728 -2.56188875
v 21.97785847 1.15084728 -1.04688877
v 22.01228090 -0.71983605 -2.56188875
v 22.01228090 -0.71983605 -1.04688877
v 17.49061827 1.06827762 -2.56188875
v 17.49061827 1.06827762 -1.04688877
v 17.52504070 -0.80240571 -2.56188875
v 17.52504070 -0.80240571 -1.04688877
v -37.20685468 12.93269693 -0.60497648
v -37.20685468 12.93269693 1.01702350
v -36.87944600 13.36964036 -0.60497648
v -36.87944600 13.36964036 1.01702350
v -36.85553936 12.66945075 -0.60497648
v -36.85553936 12.66945075 1.01702350
v -36.52813067 13.10639418 -0.60497648
v -36.52813067 13.10639418 1.01702350
v -37.28034357 -15.58939992 -0.79270011
v -37.28034357 -15.58939992 1.01429993
v -36.66972068 -15.39772394 -0.79270011
v -36.66972068 -15.39772394 1.01429993
v -37.16204354 -15.96626875 -0.79270011
v -37.16204354 -15.96626875 1.01429993
v -36.55142065 -15.77459277 -0.79270011
v -36.55142065 -15.77459277 1.01429993
v -11.26758294 17.85619200 -1.69763589
v -11.26758294 17.85619200 0.15336406
v -10.77925840 17.83049896 -1.69763589
v -10.77925840 17.83049896 0.15336406
v -11.29338107 17.36587021 -1.69763589
v -11.29338107 17.36587021 0.15336406
v -10.80505652 17.34017717 -1.69763589
v -10.80505652 17.34017717 0.15336406
v -31.84865033 -6.51255048 -0.71905196
v -31.84865033 -6.51255048 1.15794802
v -32.34116420 -6.14926806 -0.71905196
v -32.34116420 -6.14926806 1.15794802
v -31.41176167 -5.92024621 -0.71905196
v -31.41176167 -5.92024621 1.15794802
v -31.90427554 -5.55696380 -0.71905196
v -31.90427554 -5.55696380 1.15794802
v -75.33831955 8.14220478 1.63878775
v -75.33831955 8.14220478 3.19878769
v -74.94780854 9.90240649 1.63878775
v -74.94780854 9.90240649 3.19878769
v -70.95001861 7.16863462 1.63878775
v -70.95001861 7.16863462 3.19878769
v -70.55950760 8.92883633 1.63878775
v -70.55950760 8.92883633 3.19878769
v -53.77532979 -4.53276941 0.40147722
v -53.77532979 -4.53276941 2.11247718
v -53.73256500 -5.11620420 0.40147722
v -53.73256500 -5.11620420 2.11247718
v -54.45450775 -4.58255201 0.40147722
v -54.45450775 -4.58255201 2.11247718
v -54.41174296 -5.16598681 0.40147722
v -54.41174296 -5.16598681 2.11247718
v 26.15148823 -10.31431845 -3.21419954
v 26.15148823 -10.31431845 -1.00319958
v 26.18390232 -9.40689723 -3.21419954
v 26.18390232 -9.40689723 -1.00319958
v 27.25978131 -10.35390790 -3.21419954
v 27.25978131 -10.35390790 -1.00319958
v 27.29219540 -9.44648668 -3.21419954
v 27.29219540 -9.44648668 -1.00319958
v 0.40875349 6.87405964 -1.73938274
v 0.40875349 6.87405964 0.15161729
v 0.42605220 6.16226979 -1.73938274
v 0.42605220 6.16226979 0.15161729
v -0.19206913 6.85945778 -1.73938274
v -0.19206913 6.85945778 0.15161729
v -0.17477042 6.14766792 -1.73938274
v -0.17477042 6.14766792 0.15161729
v -15.88029605 -45.62384681 -2.40843844
v -15.88029605 -45.62384681 -0.32543850
v -15.12613592 -45.65944899 -2.40843844
v -15.12613592 -45.65944899 -0.32543850
v -15.93853274 -46.85747300 -2.40843844
v -15.93853274 -46.85747300 -0.32543850
v -15.18437261 -46.89307519 -2.40843844
v -15.18437261 -46.89307519 -0.32543850
v 20.50598268 -4.28423359 -2.74007565
v 20.50598268 -4.28423359 -1.10107559
v 20.53231921 -2.24740387 -2.74007565
v 20.53231921 -2.24740387 -1.10107559
v 25.46356854 -4.34833597 -2.74007565
v 25.46356854 -4.34833597 -1.10107559
v 25.48990508 -2.31150625 -2.74007565
v 25.48990508 -2.31150625 -1.10107559
v -52.75717295 17.05668877 0.61454773
v -52.75717295 17.05668877 2.44954777
v -52.89622169 16.34616683 0.61454773
v -52.89622169 16.34616683 2.44954777
v -53.56975884 17.21571137 0.61454773
v -53.56975884 17.21571137 2.44954777
v -53.70880758 16.50518944 0.61454773
v -53.70880758 16.50518944 2.44954777
v -28.56692829 -12.31112754 -1.35178828
v -28.56692829 -12.31112754 0.16821170
v -27.83135409 -12.37091526 -1.35178828
v -27.83135409 -12.37091526 0.16821170
v -28.63036161 -13.09155384 -1.35178828
v -28.63036161 -13.09155384 0.16821170
v -27.89478741 -13.15134157 -1.35178828
v -27.89478741 -13.15134157 0.16821170
v -37.69725743 -8.89786800 -0.51914901
v -37.69725743 -8.89786800 1.43085104
v -37.52651149 -8.22004292 -0.51914901
v -37.52651149 -8.22004292 1.43085104
v -36.98161381 -9.07814052 -0.51914901
v -36.98161381 -9.07814052 1.43085104
v -36.81086787 -8.40031545 -0.51914901
v -36.81086787 -8.40031545 1.43085104
f 2 4 1
f 5 2 1
f 1 4 3
f 3 5 1
f 2 8 4
f 6 2 5
f 6 8 2
f 4 8 3
f 7 5 3
f 3 8 7
f 7 6 5
f 8 6 7
f 10 12 9
f 13 10 9
f 9 12 11
f 11 13 9
f 10 16 12
f 14 10 13
f 14 16 10
f 12 16 11
f 15 13 11
f 11 16 15
f 15 14 13
f 16 14 15
f 18 20 17
f 21 18 17
f 17 20 19
f 19 21 17
f 18 24 20
f 22 18 21
f 22 24 18
f 20 24 19
f 23 21 19
f 19 24 23
f 23 22 21
f 24 22 23
f 26 28 25
f 29 26 25
f 25 28 27
f 27 29 25
f 26 32 28
f 30 26 29
f 30 32 26
f 28 32 27
f 31 29 27
f 27 32 31
f 31 30 29
f 32 30 31
f 34 36 33
f 37 34 33
f 33 36 35
f 35 37 33
f 34 40 36
f 38 34 37
f 38 40 34
f 36 40 35
f 39 37 35
f 35 40 39
f 39 38 37
f 40 38 39
f 42 44 41
f 45 42 41
f 41 44 43
f 43 45 41
f 42 48 44
f 46 42 45
f 46 48 42
f 44 48 43
f 47 45 43
f 43 48 47
f 47 46 45
f 48 46 47
f 50 52 49
f 53 50 49
f 49 52 51
f 51 53 49
f 50 56 52
f 54 50 53
f 54 56 50
f 52 56 51
f 55 53 51
f 51 56 55
f 55 54 53
f 56 54 55
f 58 60 57
f 61 58 57
f 57 60 59
f 59 61 57
f 58 64 60
f 62 58 61
f 62 64 58
f 60 64 59
f 63 61 59
f 59 64 63
f 63 62 61
f 64 62 63
f 66 68 65
f 69 66 65
f 65 68 67
f 67 69 65
f 66 72 68
f 70 66 69
f 70 72 66
f 68 72 67
f 71 69 67
f 67 72 71
f 71 70 69
f 72 70 71
f 74 76 73
f 77 74 73
f 73 76 75
f 75 77 73
f 74 80 76
f 78 74 77
f 78 80 74
f 76 80 75
f 79 77 75
f 75 80 79
f 79 78 77
f 80 78 79
f 82 84 81
f 85 82 81
f 81 84 83
f 83 85 81
f 82 88 84
f 86 82 85
f 86 88 82
f 84 88 83
f 87 85 83
f 83 88 87
f 87 86 85
f 88 86 87
f 90 92 89
f 93 90 89
f 89 92 91
f 91 93 89
f 90 96 92
f 94 90 93
f 94 96 90
f 92 96 91
f 95 93 91
f 91 96 95
f 95 94 93
f 96 94 95
f 98 100 97
f 101 98 97
f 97 100 99
f 99 101 97
f 98 104 100
f 102 98 101
f 102 104 98
f 100 104 99
f 103 101 99
f 99 104 103
f 103 102 101
f 104 102 103
f 106 108 105
f 109 106 105
f 105 108 107
f 107 109 105
f 106 112 108
f 110 106 109
f 110 112 106
f 108 112 107
f 111 109 107
f 107 112 111
f 111 110 109
f 112 110 111
f 114 116 113
f 117 114 113
f 113 116 115
f 115 117 113
f 114 120 116
f 118 114 117
f 118 120 114
f 116 120 115
f 119 117 115
f 115 120 119
f 119 118 117
f 120 118 119
f 122 124 121
f 125 122 121
f 121 124 123
f 123 125 121
f 122 128 124
f 126 122 125
f 126 128 122
f 124 128 123
f 127 125 123
f 123 128 127
f 127 126 125
f 128 126 127
f 130 132 129
f 133 130 129
f 129 132 131
f 131 133 129
f 130 136 132
f 134 130 133
f 134 136 130
f 132 136 131
f 135 133 131
f 131 136 135
f 135 134 133
f 136 134 135
f 138 140 137
f 141 138 137
f 137 140 139
f 139 141 137
f 138 144 140
f 142 138 141
f 142 144 138
f 140 144 139
f 143 141 139
f 139 144 143
f 143 142 141
f 144 142 143
f 146 148 145
f 149 146 145
f 145 148 147
f 147 149 145
f 146 152 148
f 150 146 149
f 150 152 146
f 148 152 147
f 151 149 147
f 147 152 151
f 151 150 149
f 152 150 151
f 154 156 153
f 157 154 153
f 153 156 155
f 155 157 153
f 154 160 156
f 158 154 157
f 158 160 154
f 156 160 155
f 159 157 155
f 155 160 159
f 159 158 157
f 160 158 159
f 162 164 161
f 165 162 161
f 161 164 163
f 163 165 161
f 162 168 164
f 166 162 165
f 166 168 162
f 164 168 163
f 167 165 163
f 163 168 167
f 167 166 165
f 168 166 167
f 170 172 169
f 173 170 169
f 169 172 171
f 171 173 169
f 170 176 172
f 174 170 173
f 174 176 170
f 172 176 171
f 175 173 171
f 171 176 175
f 175 174 173
f 176 174 175
f 178 180 177
f 181 178 177
f 177 180 179
f 179 181 177
f 178 184 180
f 182 178 181
f 182 184 178
f 180 184 179
f 183 181 179
f 179 184 183
f 183 182 181
f 184 182 183