v -32.34950084 -8.95306765 -0.90606749
v -32.34950084 -8.95306765 0.87193251
v -32.23521725 -8.34267412 -0.90606749
v -32.23521725 -8.34267412 0.87193251
v -31.71355136 -9.07213606 -0.90606749
v -31.71355136 -9.07213606 0.87193251
v -31.59926777 -8.46174253 -0.90606749
v -31.59926777 -8.46174253 0.87193251
v -13.14078446 6.67537596 -1.36990559
v -13.14078446 6.67537596 0.53409445
v -13.00520028 7.34988390 -1.36990559
v -13.00520028 7.34988390 0.53409445
v -12.21529685 6.48934187 -1.36990559
v -12.21529685 6.48934187 0.53409445
v -12.07971267 7.16384981 -1.36990559
v -12.07971267 7.16384981 0.53409445
v -10.07245638 -10.93955320 -1.59981275
v -10.07245638 -10.93955320 0.15218723
v -10.11382539 -10.36303553 -1.59981275
v -10.11382539 -10.36303553 0.15218723
v -9.46102851 -10.89567914 -1.59981275
v -9.46102851 -10.89567914 0.15218723
v -9.50239752 -10.31916148 -1.59981275
v -9.50239752 -10.31916148 0.15218723
v -12.58372054 -40.73469943 -2.36621237
v -12.58372054 -40.73469943 -0.36621237
v -11.67497489 -40.71319913 -2.36621237
v -11.67497489 -40.71319913 -0.36621237
v -12.55758432 -41.83939028 -2.36621237
v -12.55758432 -41.83939028 -0.36621237
v -11.64883866 -41.81788999 -2.36621237
v -11.64883866 -41.81788999 -0.36621237
v -25.36016520 8.90723109 -1.11549294
v -25.36016520 8.90723109 0.85950708
v -25.26388588 9.65203394 -1.11549294
v -25.26388588 9.65203394 0.85950708
v -24.33866463 8.77518355 -1.11549294
v -24.33866463 8.77518355 0.85950708
v -24.24238531 9.51998640 -1.11549294
v -24.24238531 9.51998640 0.85950708
v -32.65877532 10.59528134 -0.67126811
v -32.65877532 10.59528134 0.91873193
v -32.43872354 11.17491675 -0.67126811
v -32.43872354 11.17491675 0.91873193
v -32.00902274 10.34861039 -0.67126811
v -32.00902274 10.34861039 0.91873193
v -31.78897095 10.92824580 -0.67126811
v -31.78897095 10.92824580 0.91873193
v -39.00753925 7.04635005 -0.12485904
v -39.00753925 7.04635005 1.35614091
v -39.42666746 5.08973759 -0.12485904
v -39.42666746 5.08973759 1.35614091
v -43.63652682 8.03793079 -0.12485904
v -43.63652682 8.03793079 1.35614091
v -44.05565502 6.08131833 -0.12485904
v -44.05565502 6.08131833 1.35614091
v 3.85442879 5.97284022 -1.95786476
v 3.85442879 5.97284022 -0.02886474
v 3.95233734 5.34948247 -1.95786476
v 3.95233734 5.34948247 -0.02886474
v 3.25181667 5.87819011 -1.95786476
v 3.25181667 5.87819011 -0.02886474
v 3.34972522 5.25483236 -1.95786476
v 3.34972522 5.25483236 -0.02886474
v -14.26250722 -10.11922354 -1.42136252
v -14.26250722 -10.11922354 0.33963752
v -14.30025273 -9.42324629 -1.42136252
v -14.30025273 -9.42324629 0.33963752
v -13.76523800 -10.09225473 -1.42136252
v -13.76523800 -10.09225473 0.33963752
v -13.80298350 -9.39627748 -1.42136252
v -13.80298350 -9.39627748 0.33963752
v -62.24315037 -2.77022138 1.20548719
v -62.24315037 -2.77022138 2.87748724
v -64.18338561 -2.99314706 1.20548719
v -64.18338561 -2.99314706 2.87748724
v -62.81730103 2.22690301 1.20548719
v -62.81730103 2.22690301 2.87748724
v -64.75753628 2.00397733 1.20548719
v -64.75753628 2.00397733 2.87748724
v -23.38152911 10.50522137 -1.17015457
v -23.38152911 10.50522137 0.71984541
v -23.45735899 9.84455891 -1.17015457
v -23.45735899 9.84455891 0.71984541
v -24.11272844 10.58914737 -1.17015457
v -24.11272844 10.58914737 0.71984541
v -24.18855832 9.92848491 -1.17015457
v -24.18855832 9.92848491 0.71984541
v 21.83358035 1.38253763 -2.70174581
v 21.83358035 1.38253763 -1.18674582
v 21.86911734 -0.48812485 -2.70174581
v 21.86911734 -0.48812485 -1.18674582
v 17.34639017 1.29729444 -2.70174581
v 17.34639017 1.29729444 -1.18674582
v 17.38192716 -0.57336803 -2.70174581
v 17.38192716 -0.57336803 -1.18674582
v -6.75846755 17.02957492 -1.92708409
v -6.75846755 17.02957492 0.07291591
v -6.18455893 17.03981624 -1.92708409
v -6.18455893 17.03981624 0.07291591
v -6.75001043 16.55565038 -1.92708409
v -6.75001043 16.55565038 0.07291591
v -6.17610181 16.56589169 -1.92708409
v -6.17610181 16.56589169 0.07291591
v -32.74486889 -16.25976826 -1.14596498
v -32.74486889 -16.25976826 0.66103506
v -32.13780485 -16.05710296 -1.14596498
v -32.13780485 -16.05710296 0.66103506
v -32.61978640 -16.63444062 -1.14596498
v -32.61978640 -16.63444062 0.66103506
v -32.01272235 -16.43177532 -1.14596498
v -32.01272235 -16.43177532 0.66103506
v -7.34360441 17.03130119 -1.77084231
v -7.34360441 17.03130119 0.08015764
v -6.85489568 17.01442574 -1.77084231
v -6.85489568 17.01442574 0.08015764
v -7.36054888 16.54059364 -1.77084231
v -7.36054888 16.54059364 0.08015764
v -6.87184015 16.52371819 -1.77084231
v -6.87184015 16.52371819 0.08015764
v -27.28750400 -6.91066335 -0.88666278
v -27.28750400 -6.91066335 0.99033719
v -27.79260209 -6.56509154 -0.88666278
v -27.79260209 -6.56509154 0.99033719
v -26.87191436 -6.30322511 -0.88666278
v -26.87191436 -6.30322511 0.99033719
v -27.37701245 -5.95765330 -0.88666278
v -27.37701245 -5.95765330 0.99033719
v -50.03071249 -5.55863380 0.31383932
v -50.03071249 -5.55863380 2.02483928
v -49.95712594 -6.13898714 0.31383932
v -49.95712594 -6.13898714 2.02483928
v -50.70630332 -5.64429610 0.31383932
v -50.70630332 -5.64429610 2.02483928
v -50.63271677 -6.22464944 0.31383932
v -50.63271677 -6.22464944 2.02483928
v -30.12083819 10.24291053 -0.91366595
v -30.12083819 10.24291053 0.88033408
v -29.97217062 10.92079986 -0.91366595
v -29.97217062 10.92079986 0.88033408
v -29.32475779 10.06832253 -0.91366595
v -29.32475779 10.06832253 0.88033408
v -29.17609021 10.74621186 -0.91366595
v -29.17609021 10.74621186 0.88033408
v 31.40439796 -9.73185578 -3.46688557
v 31.40439796 -9.73185578 -1.25588560
v 31.42042972 -8.82399731 -3.46688557
v 31.42042972 -8.82399731 -1.25588560
v 32.51322507 -9.75143642 -3.46688557
v 32.51322507 -9.75143642 -1.25588560
v 32.52925683 -8.84357795 -3.46688557
v 32.52925683 -8.84357795 -1.25588560
v -79.65991761 2.20601655 1.99126971
v -79.65991761 2.20601655 3.62026966
v -79.29400820 3.99497893 1.99126971
v -79.29400820 3.99497893 3.62026966
v -75.06014829 1.26519248 1.99126971
v -75.06014829 1.26519248 3.62026966
v -74.69423888 3.05415486 1.99126971
v -74.69423888 3.05415486 3.62026966
v 3.84237022 6.86599861 -1.96713948
v 3.84237022 6.86599861 -0.07613945
v 3.87251235 6.15463692 -1.96713948
v 3.87251235 6.15463692 -0.07613945
v 3.24190902 6.84055561 -1.96713948
v 3.24190902 6.84055561 -0.07613945
v 3.27205115 6.12919391 -1.96713948
v 3.27205115 6.12919391 -0.07613945
v -10.67291604 -46.63695163 -2.48783112
v -10.67291604 -46.63695163 -0.40483117
v -9.91823623 -46.65893710 -2.48783112
v -9.91823623 -46.65893710 -0.40483117
v -10.70887902 -47.87142789 -2.48783112
v -10.70887902 -47.87142789 -0.40483117
v -9.95419921 -47.89341336 -2.48783112
v -9.95419921 -47.89341336 -0.40483117
v -42.41328286 -0.35618392 -0.27395576
v -42.41328286 -0.35618392 1.51804429
v -42.02757438 1.60423259 -0.27395576
v -42.02757438 1.60423259 1.51804429
v -37.57896249 -1.30732790 -0.27395576
v -37.57896249 -1.30732790 1.51804429
v -37.19325401 0.65308860 -0.27395576
v -37.19325401 0.65308860 1.51804429
v 30.49475737 -3.85002112 -3.17027026
v 30.49475737 -3.85002112 -1.53127021
v 30.43101076 -1.81401885 -3.17027026
v 30.43101076 -1.81401885 -1.53127021
v 35.45032927 -3.69486368 -3.17027026
v 35.45032927 -3.69486368 -1.53127021
v 35.38658266 -1.65886140 -3.17027026
v 35.38658266 -1.65886140 -1.53127021
v -49.45491523 16.21354696 0.60154271
v -49.45491523 16.21354696 2.43654275
v -49.58111764 15.50063116 0.60154271
v -49.58111764 15.50063116 2.43654275
v -50.27023887 16.35787790 0.60154271
v -50.27023887 16.35787790 2.43654275
v -50.39644127 15.64496210 0.60154271
v -50.39644127 15.64496210 2.43654275
v -24.08535604 -12.81426676 -1.60902739
v -24.08535604 -12.81426676 -0.08902740
v -23.34882263 -12.86076926 -1.60902739
v -23.34882263 -12.86076926 -0.08902740
v -24.13469406 -13.59571076 -1.60902739
v -24.13469406 -13.59571076 -0.08902740
v -23.39816065 -13.64221326 -1.60902739
v -23.39816065 -13.64221326 -0.08902740
v -32.72322819 -9.71476805 -0.76007634
v -32.72322819 -9.71476805 1.18992370
v -32.56474339 -9.03397177 -0.76007634
v -32.56474339 -9.03397177 1.18992370
v -32.00444759 -9.88209535 -0.76007634
v -32.00444759 -9.88209535 1.18992370
v -31.84596279 -9.20129907 -0.76007634
v -31.84596279 -9.20129907 1.18992370
v -25.37685976 10.75655707 -0.98889679
v -25.37685976 10.75655707 0.86010319
v -25.53862330 10.13320438 -0.98889679
v -25.53862330 10.13320438 0.86010319
v -26.05054525 10.93138226 -0.98889679
v -26.05054525 10.93138226 0.86010319
v -26.21230879 10.30802957 -0.98889679
v -26.21230879 10.30802957 0.86010319
f 2 4 1
f 5 2 1
f 1 4 3
f 3 5 1
f 2 8 4
f 6 2 5
f 6 8 2
f 4 8 3
f 7 5 3
f 3 8 7
f 7 6 5
f 8 6 7
f 10 12 9
f 13 10 9
f 9 12 11
f 11 13 9
f 10 16 12
f 14 10 13
f 14 16 10
f 12 16 11
f 15 13 11
f 11 16 15
f 15 14 13
f 16 14 15
f 18 20 17
f 21 18 17
f 17 20 19
f 19 21 17
f 18 24 20
f 22 18 21
f 22 24 18
f 20 24 19
f 23 21 19
f 19 24 23
f 23 22 21
f 24 22 23
f 26 28 25
f 29 26 25
f 25 28 27
f 27 29 25
f 26 32 28
f 30 26 29
f 30 32 26
f 28 32 27
f 31 29 27
f 27 32 31
f 31 30 29
f 32 30 31
f 34 36 33
f 37 34 33
f 33 36 35
f 35 37 33
f 34 40 36
f 38 34 37
f 38 40 34
f 36 40 35
f 39 37 35
f 35 40 39
f 39 38 37
f 40 38 39
f 42 44 41
f 45 42 41
f 41 44 43
f 43 45 41
f 42 48 44
f 46 42 45
f 46 48 42
f 44 48 43
f 47 45 43
f 43 48 47
f 47 46 45
f 48 46 47
f 50 52 49
f 53 50 49
f 49 52 51
f 51 53 49
f 50 56 52
f 54 50 53
f 54 56 50
f 52 56 51
f 55 53 51
f 51 56 55
f 55 54 53
f 56 54 55
f 58 60 57
f 61 58 57
f 57 60 59
f 59 61 57
f 58 64 60
f 62 58 61
f 62 64 58
f 60 64 59
f 63 61 59
f 59 64 63
f 63 62 61
f 64 62 63
f 66 68 65
f 69 66 65
f 65 68 67
f 67 69 65
f 66 72 68
f 70 66 69
f 70 72 66
f 68 72 67
f 71 69 67
f 67 72 71
f 71 70 69
f 72 70 71
f 74 76 73
f 77 74 73
f 73 76 75
f 75 77 73
f 74 80 76
f 78 74 77
f 78 80 74
f 76 80 75
f 79 77 75
f 75 80 79
f 79 78 77
f 80 78 79
f 82 84 81
f 85 82 81
f 81 84 83
f 83 85 81
f 82 88 84
f 86 82 85
f 86 88 82
f 84 88 83
f 87 85 83
f 83 88 87
f 87 86 85
f 88 86 87
f 90 92 89
f 93 90 89
f 89 92 91
f 91 93 89
f 90 96 92
f 94 90 93
f 94 96 90
f 92 96 91
f 95 93 91
f 91 96 95
f 95 94 93
f 96 94 95
f 98 100 97
f 101 98 97
f 97 100 99
f 99 101 97
f 98 104 100
f 102 98 101
f 102 104 98
f 100 104 99
f 103 101 99
f 99 104 103
f 103 102 101
f 104 102 103
f 106 108 105
f 109 106 105
f 105 108 107
f 107 109 105
f 106 112 108
f 110 106 109
f 110 112 106
f 108 112 107
f 111 109 107
f 107 112 111
f 111 110 109
f 112 110 111
f 114 116 113
f 117 114 113
f 113 116 115
f 115 117 113
f 114 120 116
f 118 114 117
f 118 120 114
f 116 120 115
f 119 117 115
f 115 120 119
f 119 118 117
f 120 118 119
f 122 124 121
f 125 122 121
f 121 124 123
f 123 125 121
f 122 128 124
f 126 122 125
f 126 128 122
f 124 128 123
f 127 125 123
f 123 128 127
f 127 126 125
f 128 126 127
f 130 132 129
f 133 130 129
f 129 132 131
f 131 133 129
f 130 136 132
f 134 130 133
f 134 136 130
f 132 136 131
f 135 133 131
f 131 136 135
f 135 134 133
f 136 134 135
f 138 140 137
f 141 138 137
f 137 140 139
f 139 141 137
f 138 144 140
f 142 138 141
f 142 144 138
f 140 144 139
f 143 141 139
f 139 144 143
f 143 142 141
f 144 142 143
f 146 148 145
f 149 146 145
f 145 148 147
f 147 149 145
f 146 152 148
f 150 146 149
f 150 152 146
f 148 152 147
f 151 149 147
f 147 152 151
f 151 150 149
f 152 150 151
f 154 156 153
f 157 154 153
f 153 156 155
f 155 157 153
f 154 160 156
f 158 154 157
f 158 160 154
f 156 160 155
f 159 157 155
f 155 160 159
f 159 158 157
f 160 158 159
f 162 164 161
f 165 162 161
f 161 164 163
f 163 165 161
f 162 168 164
f 166 162 165
f 166 168 162
f 164 168 163
f 167 165 163
f 163 168 167
f 167 166 165
f 168 166 167
f 170 172 169
f 173 170 169
f 169 172 171
f 171 173 169
f 170 176 172
f 174 170 173
f 174 176 170
f 172 176 171
f 175 173 171
f 171 176 175
f 175 174 173
f 176 174 175
f 178 180 177
f 181 178 177
f 177 180 179
f 179 181 177
f 178 184 180
f 182 178 181
f 182 184 178
f 180 184 179
f 183 181 179
f 179 184 183
f 183 182 181
f 184 182 183
f 186 188 185
f 189 186 185
f 185 188 187
f 187 189 185
f 186 192 188
f 190 186 189
f 190 192 186
f 188 192 187
f 191 189 187
f 187 192 191
f 191 190 189
f 192 190 191
f 194 196 193
f 197 194 193
f 193 196 195
f 195 197 193
f 194 200 196
f 198 194 197
f 198 200 194
f 196 200 195
f 199 197 195
f 195 200 199
f 199 198 197
f 200 198 199
f 202 204 201
f 205 202 201
f 201 204 203
f 203 205 201
f 202 208 204
f 206 202 205
f 206 208 202
f 204 208 203
f 207 205 203
f 203 208 207
f 207 206 205
f 208 206 207
f 210 212 209
f 213 210 209
f 209 212 211
f 211 213 209
f 210 216 212
f 214 210 213
f 214 216 210
f 212 216 211
f 215 213 211
f 211 216 215
f 215 214 213
f 216 214 215
f 218 220 217
f 221 218 217
f 217 220 219
f 219 221 217
f 218 224 220
f 222 218 221
f 222 224 218
f 220 224 219
f 223 221 219
f 219 224 223
f 223 222 221
f 224 222 223