v -0.24948724 6.23483501 -1.55817068
v -0.24948724 6.23483501 0.19964445
v -0.23378127 6.85571638 -1.55817068
v -0.23378127 6.85571638 0.19964445
v 0.47940963 6.21639666 -1.55817068
v 0.47940963 6.21639666 0.19964445
v 0.49511560 6.83727803 -1.55817068
v 0.49511560 6.83727803 0.19964445
v -0.16596061 5.33099555 -1.62980771
v -0.16596061 5.33099555 0.12589335
v -0.15466346 5.94637480 -1.62980771
v -0.15466346 5.94637480 0.12589335
v 0.52910652 5.31823549 -1.62980771
v 0.52910652 5.31823549 0.12589335
v 0.54040367 5.93361474 -1.62980771
v 0.54040367 5.93361474 0.12589335
v -17.88740024 7.25815905 -1.11373699
v -17.88740024 7.25815905 0.69402015
v -17.80447048 7.95548692 -1.11373699
v -17.80447048 7.95548692 0.69402015
v -17.08381992 7.16259322 -1.11373699
v -17.08381992 7.16259322 0.69402015
v -17.00089017 7.85992109 -1.11373699
v -17.00089017 7.85992109 0.69402015
v 22.30189828 1.08594790 -2.63079518
v 22.30189828 1.08594790 -1.12298042
v 22.29545901 -0.81514794 -2.63079518
v 22.29545901 -0.81514794 -1.12298042
v 17.72105100 1.10146386 -2.63079518
v 17.72105100 1.10146386 -1.12298042
v 17.71461173 -0.79963198 -2.63079518
v 17.71461173 -0.79963198 -1.12298042
v 20.73769123 -4.30743927 -2.65957695
v 20.73769123 -4.30743927 -1.15847343
v 20.73461447 -2.42048983 -2.65957695
v 20.73461447 -2.42048983 -1.15847343
v 25.40327158 -4.29983183 -2.65957695
v 25.40327158 -4.29983183 -1.15847343
v 25.40019482 -2.41288238 -2.65957695
v 25.40019482 -2.41288238 -1.15847343
v -15.28704290 -10.68331553 -1.40875459
v -15.28704290 -10.68331553 0.33868992
v -15.25663244 -9.99659826 -1.40875459
v -15.25663244 -9.99659826 0.33868992
v -14.49757899 -10.71827600 -1.40875459
v -14.49757899 -10.71827600 0.33868992
v -14.46716853 -10.03155874 -1.40875459
v -14.46716853 -10.03155874 0.33868992
v -19.56163486 -9.73331987 -1.29279923
v -19.56163486 -9.73331987 0.48537123
v -19.53904510 -9.04304366 -1.29279923
v -19.53904510 -9.04304366 0.48537123
v -18.74136567 -9.76016374 -1.29279923
v -18.74136567 -9.76016374 0.48537123
v -18.71877590 -9.06988753 -1.29279923
v -18.71877590 -9.06988753 0.48537123
v -29.36026231 10.25617876 -0.83313465
v -29.36026231 10.25617876 0.89172089
v -29.42183247 9.57850108 -0.83313465
v -29.42183247 9.57850108 0.89172089
v -30.13734111 10.32677998 -0.83313465
v -30.13734111 10.32677998 0.89172089
v -30.19891128 9.64910230 -0.83313465
v -30.19891128 9.64910230 0.89172089
v -32.43909612 -6.41315557 -0.72617257
v -32.43909612 -6.41315557 1.03761375
v -32.41290453 -5.74133559 -0.72617257
v -32.41290453 -5.74133559 1.03761375
v -31.65444777 -6.44374589 -0.72617257
v -31.65444777 -6.44374589 1.03761375
v -31.62825617 -5.77192591 -0.72617257
v -31.62825617 -5.77192591 1.03761375
v -40.46630098 7.16948515 -0.25619823
v -40.46630098 7.16948515 1.33098990
v -40.83118833 5.26805235 -0.25619823
v -40.83118833 5.26805235 1.33098990
v -45.06764590 8.05248903 -0.25619823
v -45.06764590 8.05248903 1.33098990
v -45.43253325 6.15105624 -0.25619823
v -45.43253325 6.15105624 1.33098990
v -37.58982232 -8.93053302 -0.52012205
v -37.58982232 -8.93053302 1.28066635
v -37.53515846 -8.25361990 -0.52012205
v -37.53515846 -8.25361990 1.28066635
v -36.80900353 -8.99358774 -0.52012205
v -36.80900353 -8.99358774 1.28066635
v -36.75433966 -8.31667463 -0.52012205
v -36.75433966 -8.31667463 1.28066635
v -26.61051212 11.03038365 -0.87914258
v -26.61051212 11.03038365 0.87663645
v -26.67116572 10.36903460 -0.87914258
v -26.67116572 10.36903460 0.87663645
v -27.36215948 11.09931867 -0.87914258
v -27.36215948 11.09931867 0.87663645
v -27.42281307 10.43796962 -0.87914258
v -27.42281307 10.43796962 0.87663645
v -37.20188736 -8.38360223 -0.57589579
v -37.20188736 -8.38360223 1.19142520
v -37.14812309 -7.71892900 -0.57589579
v -37.14812309 -7.71892900 1.19142520
v -36.45137948 -8.44430952 -0.57589579
v -36.45137948 -8.44430952 1.19142520
v -36.39761520 -7.77963630 -0.57589579
v -36.39761520 -7.77963630 1.19142520
v 26.30918800 -10.12773126 -2.83958316
v 26.30918800 -10.12773126 -1.05795646
v 26.32371187 -9.46652763 -2.83958316
v 26.32371187 -9.46652763 -1.05795646
v 27.03660154 -10.14370949 -2.83958316
v 27.03660154 -10.14370949 -1.05795646
v 27.05112542 -9.48250586 -2.83958316
v 27.05112542 -9.48250586 -1.05795646
v -17.08231183 -39.87417783 -2.05062526
v -17.08231183 -39.87417783 -0.31700236
v -16.50595978 -40.14049472 -2.05062526
v -16.50595978 -40.14049472 -0.31700236
v -17.33470795 -40.42040311 -2.05062526
v -17.33470795 -40.42040311 -0.31700236
v -16.75835589 -40.68672000 -2.05062526
v -16.75835589 -40.68672000 -0.31700236
v -13.79516985 -36.24599151 -2.26679420
v -13.79516985 -36.24599151 -0.65377116
v -13.45532387 -36.73480136 -2.26679420
v -13.45532387 -36.73480136 -0.65377116
v -14.30708152 -36.60189907 -2.26679420
v -14.30708152 -36.60189907 -0.65377116
v -13.96723555 -37.09070893 -2.26679420
v -13.96723555 -37.09070893 -0.65377116
v -28.53872934 -12.47072116 -1.17815697
v -28.53872934 -12.47072116 0.26842153
v -27.90403118 -12.47883872 -1.17815697
v -27.90403118 -12.47883872 0.26842153
v -28.54811726 -13.20474740 -1.17815697
v -28.54811726 -13.20474740 0.26842153
v -27.91341910 -13.21286496 -1.17815697
v -27.91341910 -13.21286496 0.26842153
v -29.09697580 -15.51390096 -1.34549332
v -29.09697580 -15.51390096 0.14325631
v -28.49112923 -15.51909225 -1.34549332
v -28.49112923 -15.51909225 0.14325631
v -29.10251396 -16.16022904 -1.34549332
v -29.10251396 -16.16022904 0.14325631
v -28.49666739 -16.16542033 -1.34549332
v -28.49666739 -16.16542033 0.14325631
v -32.94234215 -11.78737533 -0.82835984
v -32.94234215 -11.78737533 0.61322916
v -33.54679936 -11.75487532 -0.82835984
v -33.54679936 -11.75487532 0.61322916
v -32.90670711 -11.12461076 -0.82835984
v -32.90670711 -11.12461076 0.61322916
v -33.51116432 -11.09211075 -0.82835984
v -33.51116432 -11.09211075 0.61322916
v -15.65560027 -45.62502731 -2.19239354
v -15.65560027 -45.62502731 -0.40456676
v -14.99966426 -45.82554546 -2.19239354
v -14.99966426 -45.82554546 -0.40456676
v -15.85806279 -46.28732381 -2.19239354
v -15.85806279 -46.28732381 -0.40456676
v -15.20212678 -46.48784195 -2.19239354
v -15.20212678 -46.48784195 -0.40456676
v -49.87825389 0.67423069 0.02097094
v -49.87825389 0.67423069 1.84279978
v -49.70684538 2.65607958 0.02097094
v -49.70684538 2.65607958 1.84279978
v -45.10020724 0.26098127 0.02097094
v -45.10020724 0.26098127 1.84279978
v -44.92879872 2.24283017 0.02097094
v -44.92879872 2.24283017 1.84279978
v -54.26819131 -0.76911879 0.19759053
v -54.26819131 -0.76911879 2.00152665
v -54.06185211 1.18420885 0.19759053
v -54.06185211 1.18420885 2.00152665
v -49.56041657 -1.26642320 0.19759053
v -49.56041657 -1.26642320 2.00152665
v -49.35407737 0.68690444 0.19759053
v -49.35407737 0.68690444 2.00152665
v -11.88075528 -41.79236908 -2.42193121
v -11.88075528 -41.79236908 -1.12309462
v -11.82616001 -41.20969277 -2.42193121
v -11.82616001 -41.20969277 -1.12309462
v -11.19834561 -41.85630912 -2.42193121
v -11.19834561 -41.85630912 -1.12309462
v -11.14375033 -41.27363281 -2.42193121
v -11.14375033 -41.27363281 -1.12309462
v -37.23142824 12.84402694 -0.49229455
v -37.23142824 12.84402694 1.17083335
v -37.17275834 13.49102813 -0.49229455
v -37.17275834 13.49102813 1.17083335
v -36.54249739 12.78155487 -0.49229455
v -36.54249739 12.78155487 1.17083335
v -36.48382750 13.42855607 -0.49229455
v -36.48382750 13.42855607 1.17083335
v -34.67854222 10.82715767 -0.67720616
v -34.67854222 10.82715767 1.05351198
v -34.61843548 11.49643579 -0.67720616
v -34.61843548 11.49643579 1.05351198
v -33.93945637 10.76078162 -0.67720616
v -33.93945637 10.76078162 1.05351198
v -33.87934963 11.43005974 -0.67720616
v -33.87934963 11.43005974 1.05351198
v -13.48538980 -47.02448253 -2.53186232
v -13.48538980 -47.02448253 -1.05526394
v -13.29951529 -46.42108970 -2.53186232
v -13.29951529 -46.42108970 -1.05526394
v -12.85160776 -47.21971840 -2.53186232
v -12.85160776 -47.21971840 -1.05526394
v -12.66573325 -46.61632558 -2.53186232
v -12.66573325 -46.61632558 -1.05526394
v -52.97349887 17.07597445 0.49676007
v -52.97349887 17.07597445 2.31602246
v -53.01674349 16.39188653 0.49676007
v -53.01674349 16.39188653 2.31602246
v -53.71338956 17.12274665 0.49676007
v -53.71338956 17.12274665 2.31602246
v -53.75663419 16.43865873 0.49676007
v -53.75663419 16.43865873 2.31602246
v 38.32578899 -9.16053608 -3.23426771
v 38.32578899 -9.16053608 -1.49303913
v 38.29531504 -9.78513119 -3.23426771
v 38.29531504 -9.78513119 -1.49303913
v 37.65956472 -9.12803104 -3.23426771
v 37.65956472 -9.12803104 -1.49303913
v 37.62909077 -9.75262616 -3.23426771
v 37.62909077 -9.75262616 -1.49303913
v -23.09453986 -39.49565968 -1.59630179
v -23.09453986 -39.49565968 0.14749646
v -22.52093325 -39.75580623 -1.59630179
v -22.52093325 -39.75580623 0.14749646
v -23.35403623 -40.06783268 -1.59630179
v -23.35403623 -40.06783268 0.14749646
v -22.78042962 -40.32797923 -1.59630179
v -22.78042962 -40.32797923 0.14749646
v -14.16152888 -45.48952594 -2.27690315
v -14.16152888 -45.48952594 -0.67927575
v -13.51729109 -45.39925010 -2.27690315
v -13.51729109 -45.39925010 -0.67927575
v -14.07056901 -46.13864510 -2.27690315
v -14.07056901 -46.13864510 -0.67927575
v -13.42633123 -46.04836926 -2.27690315
v -13.42633123 -46.04836926 -0.67927575
v -9.50814266 32.70672504 -2.07985282
v -9.50814266 32.70672504 -0.26037335
v -8.82447385 32.73544427 -2.07985282
v -8.82447385 32.73544427 -0.26037335
v -9.48130466 32.06783942 -2.07985282
v -9.48130466 32.06783942 -0.26037335
v -8.79763584 32.09655865 -2.07985282
v -8.79763584 32.09655865 -0.26037335
v -31.62363678 -13.73784934 -0.85796964
v -31.62363678 -13.73784934 0.55525362
v -32.06754937 -13.30690813 -0.85796964
v -32.06754937 -13.30690813 0.55525362
v -31.15844855 -13.25865889 -0.85796964
v -31.15844855 -13.25865889 0.55525362
v -31.60236114 -12.82771768 -0.85796964
v -31.60236114 -12.82771768 0.55525362
v -36.51872710 22.25097178 -0.39548382
v -36.51872710 22.25097178 1.25369349
v -38.21451025 21.21761738 -0.39548382
v -38.21451025 21.21761738 1.25369349
v -38.92374964 26.19772686 -0.39548382
v -38.92374964 26.19772686 1.25369349
v -40.61953279 25.16437246 -0.39548382
v -40.61953279 25.16437246 1.25369349
v -29.41352936 -15.91013813 -1.34611225
v -29.41352936 -15.91013813 0.19756401
v -28.83103067 -15.78802834 -1.34611225
v -28.83103067 -15.78802834 0.19756401
v -29.29193991 -16.49015465 -1.34611225
v -29.29193991 -16.49015465 0.19756401
v -28.70944122 -16.36804486 -1.34611225
v -28.70944122 -16.36804486 0.19756401
v -32.68972056 -13.60269750 -0.84445357
v -32.68972056 -13.60269750 0.51121235
v -33.28360628 -13.53015456 -0.84445357
v -33.28360628 -13.53015456 0.51121235
v -32.61002470 -12.95025315 -0.84445357
v -32.61002470 -12.95025315 0.51121235
v -33.20391042 -12.87771021 -0.84445357
v -33.20391042 -12.87771021 0.51121235
v -36.45083418 -16.53445078 -0.90710855
v -36.45083418 -16.53445078 0.77949297
v -37.01937922 -16.28627734 -0.90710855
v -37.01937922 -16.28627734 0.77949297
v -36.18916265 -15.93498274 -0.90710855
v -36.18916265 -15.93498274 0.77949297
v -36.75770769 -15.68680929 -0.90710855
v -36.75770769 -15.68680929 0.77949297
v -14.32274221 -49.42156892 -2.37314993
v -14.32274221 -49.42156892 -0.64067119
v -14.11788325 -48.78930209 -2.37314993
v -14.11788325 -48.78930209 -0.64067119
v -13.67824407 -49.63039090 -2.37314993
v -13.67824407 -49.63039090 -0.64067119
v -13.47338511 -48.99812408 -2.37314993
v -13.47338511 -48.99812408 -0.64067119
v 43.09925049 -9.46222951 -3.43533766
v 43.09925049 -9.46222951 -1.71823156
v 43.10579058 -10.07826746 -3.43533766
v 43.10579058 -10.07826746 -1.71823156
v 42.46254591 -9.46898901 -3.43533766
v 42.46254591 -9.46898901 -1.71823156
v 42.46908600 -10.08502696 -3.43533766
v 42.46908600 -10.08502696 -1.71823156
v -13.70549135 -46.47269474 -2.58928758
v -13.70549135 -46.47269474 -1.13014477
v -13.14376728 -46.16559691 -2.58928758
v -13.14376728 -46.16559691 -1.13014477
v -13.35116680 -47.12080293 -2.58928758
v -13.35116680 -47.12080293 -1.13014477
v -12.78944274 -46.81370510 -2.58928758
v -12.78944274 -46.81370510 -1.13014477
v 46.07470862 -10.74686811 -3.62137860
v 46.07470862 -10.74686811 -1.91395265
v 46.08472089 -11.36486483 -3.62137860
v 46.08472089 -11.36486483 -1.91395265
v 45.51246234 -10.75597715 -3.62137860
v 45.51246234 -10.75597715 -1.91395265
v 45.52247460 -11.37397387 -3.62137860
v 45.52247460 -11.37397387 -1.91395265
v -28.64204720 -12.59767455 -1.15505171
v -28.64204720 -12.59767455 0.24088967
v -28.04656127 -12.60075553 -1.15505171
v -28.04656127 -12.60075553 0.24088967
v -28.64572999 -13.30947702 -1.15505171
v -28.64572999 -13.30947702 0.24088967
v -28.05024406 -13.31255800 -1.15505171
v -28.05024406 -13.31255800 0.24088967
v -33.62865258 -6.17881164 -0.71541697
v -33.62865258 -6.17881164 1.03128499
v -33.57968091 -5.49403488 -0.71541697
v -33.57968091 -5.49403488 1.03128499
v -32.81608630 -6.23692215 -0.71541697
v -32.81608630 -6.23692215 1.03128499
v -32.76711463 -5.55214539 -0.71541697
v -32.76711463 -5.55214539 1.03128499
v -28.88196607 9.10402594 -0.72579277
v -28.88196607 9.10402594 1.07535732
v -28.93449513 8.41200943 -0.72579277
v -28.93449513 8.41200943 1.07535732
v -29.67751965 9.16441421 -0.72579277
v -29.67751965 9.16441421 1.07535732
v -29.73004870 8.47239770 -0.72579277
v -29.73004870 8.47239770 1.07535732
v -0.12992765 5.97957327 -1.58372903
v -0.12992765 5.97957327 0.11394048
v -0.10689611 6.56119799 -1.58372903
v -0.10689611 6.56119799 0.11394048
v 0.53438634 5.95326734 -1.58372903
v 0.53438634 5.95326734 0.11394048
v 0.55741789 6.53489206 -1.58372903
v 0.55741789 6.53489206 0.11394048
v 45.44552355 -9.69690107 -3.51466602
v 45.44552355 -9.69690107 -1.78168684
v 45.44760043 -10.32943510 -3.51466602
v 45.44760043 -10.32943510 -1.78168684
v 44.81102842 -9.69898439 -3.51466602
v 44.81102842 -9.69898439 -1.78168684
v 44.81310530 -10.33151842 -3.51466602
v 44.81310530 -10.33151842 -1.78168684
v -26.21085103 -23.33784714 -1.84151757
v -26.21085103 -23.33784714 -0.40094268
v -25.56727383 -23.40281553 -1.84151757
v -25.56727383 -23.40281553 -0.40094268
v -26.28599765 -24.08224993 -1.84151757
v -26.28599765 -24.08224993 -0.40094268
v -25.64242045 -24.14721832 -1.84151757
v -25.64242045 -24.14721832 -0.40094268
v -22.33068133 -11.22977306 -1.32078910
v -22.33068133 -11.22977306 0.27206445
v -22.29681981 -10.58362654 -1.32078910
v -22.29681981 -10.58362654 0.27206445
v -21.62400233 -11.26680681 -1.32078910
v -21.62400233 -11.26680681 0.27206445
v -21.59014081 -10.62066029 -1.32078910
v -21.59014081 -10.62066029 0.27206445
v -30.18198016 -17.27493014 -1.38812053
v -30.18198016 -17.27493014 0.32355022
v -30.81099748 -17.21259642 -1.38812053
v -30.81099748 -17.21259642 0.32355022
v -30.12032271 -16.65273714 -1.38812053
v -30.12032271 -16.65273714 0.32355022
v -30.74934003 -16.59040342 -1.38812053
v -30.74934003 -16.59040342 0.32355022
v -40.01341314 11.78229748 -0.20197898
v -40.01341314 11.78229748 1.59660202
v -40.07408358 11.11022673 -0.20197898
v -40.07408358 11.11022673 1.59660202
v -40.74708341 11.84852876 -0.20197898
v -40.74708341 11.84852876 1.59660202
v -40.80775385 11.17645801 -0.20197898
v -40.80775385 11.17645801 1.59660202
v -23.43538325 -48.90874543 -1.71421921
v -23.43538325 -48.90874543 0.09236825
v -22.73432709 -49.03291670 -1.71421921
v -22.73432709 -49.03291670 0.09236825
v -23.55650543 -49.59258684 -1.71421921
v -23.55650543 -49.59258684 0.09236825
v -22.85544927 -49.71675811 -1.71421921
v -22.85544927 -49.71675811 0.09236825
v -37.04095245 13.01926662 -0.56306458
v -37.04095245 13.01926662 1.12569439
v -36.97579314 13.63500743 -0.56306458
v -36.97579314 13.63500743 1.12569439
v -36.35524629 12.94670339 -0.56306458
v -36.35524629 12.94670339 1.12569439
v -36.29008698 13.56244420 -0.56306458
v -36.29008698 13.56244420 1.12569439
v -36.40743498 -15.90345639 -0.90349305
v -36.40743498 -15.90345639 0.73694813
v -37.03942814 -15.78796533 -0.90349305
v -37.03942814 -15.78796533 0.73694813
v -36.28689632 -15.24384161 -0.90349305
v -36.28689632 -15.24384161 0.73694813
v -36.91888948 -15.12835056 -0.90349305
v -36.91888948 -15.12835056 0.73694813
v 50.89512298 -9.17158260 -3.78943408
v 50.89512298 -9.17158260 -2.01272333
v 50.88418551 -9.80630533 -3.78943408
v 50.88418551 -9.80630533 -2.01272333
v 50.21119718 -9.15979727 -3.78943408
v 50.21119718 -9.15979727 -2.01272333
v 50.20025971 -9.79452000 -3.78943408
v 50.20025971 -9.79452000 -2.01272333
v -13.14203418 -51.06735217 -2.42072231
v -13.14203418 -51.06735217 -0.71984833
v -12.72415263 -50.49409640 -2.42072231
v -12.72415263 -50.49409640 -0.71984833
v -12.55062765 -51.49846494 -2.42072231
v -12.55062765 -51.49846494 -0.71984833
v -12.13274609 -50.92520917 -2.42072231
v -12.13274609 -50.92520917 -0.71984833
v -37.35193384 12.83115900 -0.49056706
v -37.35193384 12.83115900 1.17214492
v -37.29793440 13.46525690 -0.49056706
v -37.29793440 13.46525690 1.17214492
v -36.63738359 12.77030828 -0.49056706
v -36.63738359 12.77030828 1.17214492
v -36.58338415 13.40440618 -0.49056706
v -36.58338415 13.40440618 1.17214492
v -20.21873752 -39.22176840 -1.92039317
v -20.21873752 -39.22176840 -0.19056302
v -19.62987412 -39.44118651 -1.92039317
v -19.62987412 -39.44118651 -0.19056302
v -20.43523513 -39.80279390 -1.92039317
v -20.43523513 -39.80279390 -0.19056302
v -19.84637173 -40.02221201 -1.92039317
v -19.84637173 -40.02221201 -0.19056302
v -17.48858609 -21.90171677 -2.07446098
v -17.48858609 -21.90171677 -0.33669591
v -17.01277675 -22.35946748 -2.07446098
v -17.01277675 -22.35946748 -0.33669591
v -17.97045385 -22.40259459 -2.07446098
v -17.97045385 -22.40259459 -0.33669591
v -17.49464450 -22.86034531 -2.07446098
v -17.49464450 -22.86034531 -0.33669591
v 45.62774055 -10.01839614 -3.52413428
v 45.62774055 -10.01839614 -1.74590909
v 45.59644260 -10.66607901 -3.52413428
v 45.59644260 -10.66607901 -1.74590909
v 44.99138699 -9.98764566 -3.52413428
v 44.99138699 -9.98764566 -1.74590909
v 44.96008904 -10.63532853 -3.52413428
v 44.96008904 -10.63532853 -1.74590909
v -28.42747152 -12.83410550 -1.22329712
v -28.42747152 -12.83410550 0.17495096
v -27.85119666 -12.84530906 -1.22329712
v -27.85119666 -12.84530906 0.17495096
v -28.44038354 -13.49825783 -1.22329712
v -28.44038354 -13.49825783 0.17495096
v -27.86410868 -13.50946140 -1.22329712
v -27.86410868 -13.50946140 0.17495096
v -37.88424709 14.58437936 -0.46588063
v -37.88424709 14.58437936 1.35789561
v -37.93414832 13.92810332 -0.46588063
v -37.93414832 13.92810332 1.35789561
v -38.57235192 14.63670076 -0.46588063
v -38.57235192 14.63670076 1.35789561
v -38.62225316 13.98042472 -0.46588063
v -38.62225316 13.98042472 1.35789561
v -25.96347156 -28.71061079 -1.71210861
v -25.96347156 -28.71061079 0.07498133
v -25.88736582 -29.42374669 -1.71210861
v -25.88736582 -29.42374669 0.07498133
v -26.71915579 -28.79125728 -1.71210861
v -26.71915579 -28.79125728 0.07498133
v -26.64305005 -29.50439318 -1.71210861
v -26.64305005 -29.50439318 0.07498133
v -48.29451696 0.70685593 0.02023494
v -48.29451696 0.70685593 1.77142823
v -48.11901877 2.64414718 0.02023494
v -48.11901877 2.64414718 1.77142823
v -43.70172098 0.29079697 0.02023494
v -43.70172098 0.29079697 1.77142823
v -43.52622279 2.22808822 0.02023494
v -43.52622279 2.22808822 1.77142823
v 50.86206520 -9.07604327 -3.73621196
v 50.86206520 -9.07604327 -1.96507245
v 50.80102581 -9.71944620 -3.73621196
v 50.80102581 -9.71944620 -1.96507245
v 50.17878681 -9.01122091 -3.73621196
v 50.17878681 -9.01122091 -1.96507245
v 50.11774742 -9.65462384 -3.73621196
v 50.11774742 -9.65462384 -1.96507245
v -10.18426333 -35.73235094 -2.34708190
v -10.18426333 -35.73235094 -0.96171260
v -10.01845432 -35.14677681 -2.34708190
v -10.01845432 -35.14677681 -0.96171260
v -9.53897977 -35.91506706 -2.34708190
v -9.53897977 -35.91506706 -0.96171260
v -9.37317075 -35.32949293 -2.34708190
v -9.37317075 -35.32949293 -0.96171260
v -9.54736464 -38.00722056 -2.44394201
v -9.54736464 -38.00722056 -1.01415497
v -9.41368761 -38.63471360 -2.44394201
v -9.41368761 -38.63471360 -1.01415497
v -10.26550397 -38.16020828 -2.44394201
v -10.26550397 -38.16020828 -1.01415497
v -10.13182695 -38.78770131 -2.44394201
v -10.13182695 -38.78770131 -1.01415497
v 43.08131756 -8.49913638 -3.49174893
v 43.08131756 -8.49913638 -1.73372447
v 43.05847233 -9.14071239 -3.49174893
v 43.05847233 -9.14071239 -1.73372447
v 42.40634090 -8.47510182 -3.49174893
v 42.40634090 -8.47510182 -1.73372447
v 42.38349567 -9.11667783 -3.49174893
v 42.38349567 -9.11667783 -1.73372447
v -36.84128545 -16.78999374 -1.21945095
v -36.84128545 -16.78999374 0.48976111
v -36.91750561 -16.12750844 -1.21945095
v -36.91750561 -16.12750844 0.48976111
v -36.19156421 -16.71524211 -1.21945095
v -36.19156421 -16.71524211 0.48976111
v -36.26778437 -16.05275681 -1.21945095
v -36.26778437 -16.05275681 0.48976111
v 46.07835566 -11.57632537 -3.53230560
v 46.07835566 -11.57632537 -1.82538521
v 46.09249567 -12.18168657 -3.53230560
v 46.09249567 -12.18168657 -1.82538521
v 45.46858527 -11.59056837 -3.53230560
v 45.46858527 -11.59056837 -1.82538521
v 45.48272528 -12.19592958 -3.53230560
v 45.48272528 -12.19592958 -1.82538521
v -28.76056335 9.76692665 -0.76266050
v -28.76056335 9.76692665 0.97070110
v -28.81024001 9.08176911 -0.76266050
v -28.81024001 9.08176911 0.97070110
v -29.55047776 9.82419861 -0.76266050
v -29.55047776 9.82419861 0.97070110
v -29.60015442 9.13904106 -0.76266050
v -29.60015442 9.13904106 0.97070110
v 44.82961771 -8.86791165 -3.47596073
v 44.82961771 -8.86791165 -1.71237230
v 44.78883262 -9.51635041 -3.47596073
v 44.78883262 -9.51635041 -1.71237230
v 44.18952279 -8.82765136 -3.47596073
v 44.18952279 -8.82765136 -1.71237230
v 44.14873770 -9.47609012 -3.47596073
v 44.14873770 -9.47609012 -1.71237230
v 46.33817202 -11.79142326 -3.57541043
v 46.33817202 -11.79142326 -1.86377996
v 46.32468039 -12.38138934 -3.57541043
v 46.32468039 -12.38138934 -1.86377996
v 45.74269479 -11.77780561 -3.57541043
v 45.74269479 -11.77780561 -1.86377996
v 45.72920316 -12.36777168 -3.57541043
v 45.72920316 -12.36777168 -1.86377996
v -20.52287877 -40.25390616 -1.79035163
v -20.52287877 -40.25390616 -0.03017449
v -19.91833224 -40.39868478 -1.79035163
v -19.91833224 -40.39868478 -0.03017449
v -20.66195951 -40.83466025 -1.79035163
v -20.66195951 -40.83466025 -0.03017449
v -20.05741298 -40.97943887 -1.79035163
v -20.05741298 -40.97943887 -0.03017449
v -32.79586020 -6.61871319 -0.71881896
v -32.79586020 -6.61871319 1.02497452
v -32.76383078 -5.98449262 -0.71881896
v -32.76383078 -5.98449262 1.02497452
v -32.01140726 -6.65832965 -0.71881896
v -32.01140726 -6.65832965 1.02497452
v -31.97937784 -6.02410907 -0.71881896
v -31.97937784 -6.02410907 1.02497452
v -13.87275175 -36.24582101 -2.22096825
v -13.87275175 -36.24582101 -0.62577605
v -13.45280577 -36.62121538 -2.22096825
v -13.45280577 -36.62121538 -0.62577605
v -14.26298403 -36.68236586 -2.22096825
v -14.26298403 -36.68236586 -0.62577605
v -13.84303805 -37.05776023 -2.22096825
v -13.84303805 -37.05776023 -0.62577605
v 43.31066671 -9.83424492 -3.39867663
v 43.31066671 -9.83424492 -1.69474626
v 43.30686736 -10.43967863 -3.39867663
v 43.30686736 -10.43967863 -1.69474626
v 42.67882752 -9.83027987 -3.39867663
v 42.67882752 -9.83027987 -1.69474626
v 42.67502818 -10.43571358 -3.39867663
v 42.67502818 -10.43571358 -1.69474626
v -32.45457633 -6.23617638 -0.74997890
v -32.45457633 -6.23617638 0.98572981
v -32.42517419 -5.60450925 -0.74997890
v -32.42517419 -5.60450925 0.98572981
v -31.70606665 -6.27101718 -0.74997890
v -31.70606665 -6.27101718 0.98572981
v -31.67666451 -5.63935004 -0.74997890
v -31.67666451 -5.63935004 0.98572981
v -29.46645342 10.75095848 -0.82564831
v -29.46645342 10.75095848 0.85421455
v -29.51798815 10.09387393 -0.82564831
v -29.51798815 10.09387393 0.85421455
v -30.26063734 10.81324583 -0.82564831
v -30.26063734 10.81324583 0.85421455
v -30.31217207 10.15616127 -0.82564831
v -30.31217207 10.15616127 0.85421455
v -33.32739473 -6.33743138 -0.75386322
v -33.32739473 -6.33743138 0.91584861
v -33.32177911 -5.69552048 -0.75386322
v -33.32177911 -5.69552048 0.91584861
v -32.60273566 -6.34377090 -0.75386322
v -32.60273566 -6.34377090 0.91584861
v -32.59712004 -5.70186000 -0.75386322
v -32.59712004 -5.70186000 0.91584861
v -9.90947647 -41.71486353 -2.54574114
v -9.90947647 -41.71486353 -1.03395265
v -9.87236025 -41.05979035 -2.54574114
v -9.87236025 -41.05979035 -1.03395265
v -9.14080046 -41.75841644 -2.54574114
v -9.14080046 -41.75841644 -1.03395265
v -9.10368424 -41.10334326 -2.54574114
v -9.10368424 -41.10334326 -1.03395265
v -14.02881323 -35.92508839 -2.31579095
v -14.02881323 -35.92508839 -0.67991370
v -13.70214311 -36.41382638 -2.31579095
v -13.70214311 -36.41382638 -0.67991370
v -14.55421980 -36.27626762 -2.31579095
v -14.55421980 -36.27626762 -0.67991370
v -14.22754969 -36.76500560 -2.31579095
v -14.22754969 -36.76500560 -0.67991370
v 46.47925432 -10.96829460 -3.63182735
v 46.47925432 -10.96829460 -1.87526655
v 46.46548373 -11.59521041 -3.63182735
v 46.46548373 -11.59521041 -1.87526655
v 45.85692685 -10.95462480 -3.63182735
v 45.85692685 -10.95462480 -1.87526655
v 45.84315626 -11.58154060 -3.63182735
v 45.84315626 -11.58154060 -1.87526655
v -52.07274906 -2.52267478 0.22709870
v -52.07274906 -2.52267478 2.04262829
v -52.04954276 -1.78561008 0.22709870
v -52.04954276 -1.78561008 2.04262829
v -51.32264962 -2.54629147 0.22709870
v -51.32264962 -2.54629147 2.04262829
v -51.29944332 -1.80922677 0.22709870
v -51.29944332 -1.80922677 2.04262829
v -53.13453161 16.74827456 0.45486546
v -53.13453161 16.74827456 2.25923586
v -53.19406555 16.06252736 0.45486546
v -53.19406555 16.06252736 2.25923586
v -53.88384583 16.81332714 0.45486546
v -53.88384583 16.81332714 2.25923586
v -53.94337976 16.12757994 0.45486546
v -53.94337976 16.12757994 2.25923586
v -23.58085566 -31.99603127 -1.86538827
v -23.58085566 -31.99603127 -0.11880767
v -22.89168117 -32.02817832 -1.86538827
v -22.89168117 -32.02817832 -0.11880767
v -23.61414769 -32.70975198 -1.86538827
v -23.61414769 -32.70975198 -0.11880767
v -22.92497320 -32.74189903 -1.86538827
v -22.92497320 -32.74189903 -0.11880767
v 35.15475878 -9.52352502 -3.11617029
v 35.15475878 -9.52352502 -1.37575305
v 35.17759263 -8.88263300 -3.11617029
v 35.17759263 -8.88263300 -1.37575305
v 35.87834609 -9.54930517 -3.11617029
v 35.87834609 -9.54930517 -1.37575305
v 35.90117994 -8.90841315 -3.11617029
v 35.90117994 -8.90841315 -1.37575305
v -26.53032139 -23.53937181 -1.85825998
v -26.53032139 -23.53937181 -0.34341639
v -25.95543299 -23.24777612 -1.85825998
v -25.95543299 -23.24777612 -0.34341639
v -26.20392980 -24.18286124 -1.85825998
v -26.20392980 -24.18286124 -0.34341639
v -25.62904140 -23.89126555 -1.85825998
v -25.62904140 -23.89126555 -0.34341639
v 42.92807208 7.13330887 -3.47297025
v 42.92807208 7.13330887 -1.74424100
v 42.93469229 7.72391827 -3.47297025
v 42.93469229 7.72391827 -1.74424100
v 43.55526743 7.12627856 -3.47297025
v 43.55526743 7.12627856 -1.74424100
v 43.56188764 7.71688796 -3.47297025
v 43.56188764 7.71688796 -1.74424100
v -21.34169682 -12.03859142 -1.37470496
v -21.34169682 -12.03859142 0.10597503
v -21.93761646 -12.05806111 -1.37470496
v -21.93761646 -12.05806111 0.10597503
v -21.36169995 -11.42634441 -1.37470496
v -21.36169995 -11.42634441 0.10597503
v -21.95761959 -11.44581410 -1.37470496
v -21.95761959 -11.44581410 0.10597503
v -24.92810210 -41.98127408 -1.69710314
v -24.92810210 -41.98127408 0.13893008
v -24.25748238 -42.02802973 -1.69710314
v -24.25748238 -42.02802973 0.13893008
v -24.97419181 -42.64234228 -1.69710314
v -24.97419181 -42.64234228 0.13893008
v -24.30357209 -42.68909793 -1.69710314
v -24.30357209 -42.68909793 0.13893008
v -23.86901166 -32.00631038 -1.81138873
v -23.86901166 -32.00631038 -0.15340173
v -23.18740995 -31.96415215 -1.81138873
v -23.18740995 -31.96415215 -0.15340173
v -23.82507174 -32.71671791 -1.81138873
v -23.82507174 -32.71671791 -0.15340173
v -23.14347003 -32.67455968 -1.81138873
v -23.14347003 -32.67455968 -0.15340173
v -22.60387430 -11.74302219 -1.40283656
v -22.60387430 -11.74302219 0.23034120
v -22.65743451 -11.11592569 -1.40283656
v -22.65743451 -11.11592569 0.23034120
v -21.89845843 -11.68277273 -1.40283656
v -21.89845843 -11.68277273 0.23034120
v -21.95201864 -11.05567624 -1.40283656
v -21.95201864 -11.05567624 0.23034120
v -18.08889066 -10.58729783 -1.35781050
v -18.08889066 -10.58729783 0.23527551
v -18.38792921 -11.13860898 -1.35781050
v -18.38792921 -11.13860898 0.23527551
v -18.66018176 -10.27742190 -1.35781050
v -18.66018176 -10.27742190 0.23527551
v -18.95922030 -10.82873305 -1.35781050
v -18.95922030 -10.82873305 0.23527551
v -30.84043006 -15.72677106 -1.37662482
v -30.84043006 -15.72677106 0.33354294
v -30.78265217 -16.35297520 -1.37662482
v -30.78265217 -16.35297520 0.33354294
v -31.49536297 -15.78719966 -1.37662482
v -31.49536297 -15.78719966 0.33354294
v -31.43758508 -16.41340381 -1.37662482
v -31.43758508 -16.41340381 0.33354294
v -44.20423995 15.28665276 -0.11175776
v -44.20423995 15.28665276 1.70259619
v -44.25755135 14.61614060 -0.11175776
v -44.25755135 14.61614060 1.70259619
v -44.89926323 15.34191299 -0.11175776
v -44.89926323 15.34191299 1.70259619
v -44.95257462 14.67140083 -0.11175776
v -44.95257462 14.67140083 1.70259619
v -9.92376376 -49.17394684 -2.40519071
v -9.92376376 -49.17394684 -0.69449854
v -9.71447683 -49.85335048 -2.40519071
v -9.71447683 -49.85335048 -0.69449854
v -10.61256479 -49.38612858 -2.40519071
v -10.61256479 -49.38612858 -0.69449854
v -10.40327787 -50.06553223 -2.40519071
v -10.40327787 -50.06553223 -0.69449854
v -19.53297987 -9.74180757 -1.29173350
v -19.53297987 -9.74180757 0.40982044
v -19.50269713 -9.09882830 -1.29173350
v -19.50269713 -9.09882830 0.40982044
v -18.69173036 -9.78142835 -1.29173350
v -18.69173036 -9.78142835 0.40982044
v -18.66144762 -9.13844908 -1.29173350
v -18.66144762 -9.13844908 0.40982044
v 51.02562150 -9.34263480 -3.71992010
v 51.02562150 -9.34263480 -1.93608671
v 51.05027503 -8.62951682 -3.71992010
v 51.05027503 -8.62951682 -1.93608671
v 51.82651788 -9.37032296 -3.71992010
v 51.82651788 -9.37032296 -1.93608671
v 51.85117141 -8.65720498 -3.71992010
v 51.85117141 -8.65720498 -1.93608671
v 51.56359998 -10.02005391 -3.77736175
v 51.56359998 -10.02005391 -2.01004422
v 51.54748866 -10.65405853 -3.77736175
v 51.54748866 -10.65405853 -2.01004422
v 50.87839940 -10.00264161 -3.77736175
v 50.87839940 -10.00264161 -2.01004422
v 50.86228808 -10.63664622 -3.77736175
v 50.86228808 -10.63664622 -2.01004422
v -26.99039084 10.01759691 -0.82016164
v -26.99039084 10.01759691 0.90911919
v -27.03109976 9.33789447 -0.82016164
v -27.03109976 9.33789447 0.90911919
v -27.80311350 10.06627270 -0.82016164
v -27.80311350 10.06627270 0.90911919
v -27.84382241 9.38657027 -0.82016164
v -27.84382241 9.38657027 0.90911919
v -19.43793949 -9.40879386 -1.29615355
v -19.43793949 -9.40879386 0.42674553
v -19.40638544 -8.78428019 -1.29615355
v -19.40638544 -8.78428019 0.42674553
v -18.68152045 -9.44701253 -1.29615355
v -18.68152045 -9.44701253 0.42674553
v -18.64996639 -8.82249887 -1.29615355
v -18.64996639 -8.82249887 0.42674553
v -17.88846291 -24.36666460 -2.05960900
v -17.88846291 -24.36666460 -0.48871559
v -17.26937442 -24.28522978 -2.05960900
v -17.26937442 -24.28522978 -0.48871559
v -17.80165524 -25.02659883 -2.05960900
v -17.80165524 -25.02659883 -0.48871559
v -17.18256675 -24.94516401 -2.05960900
v -17.18256675 -24.94516401 -0.48871559
v -13.19175903 -23.38389838 -2.67664284
v -13.19175903 -23.38389838 -0.88840824
v -12.52993146 -23.39901696 -2.67664284
v -12.52993146 -23.39901696 -0.88840824
v -13.20780047 -24.08612480 -2.67664284
v -13.20780047 -24.08612480 -0.88840824
v -12.54597290 -24.10124337 -2.67664284
v -12.54597290 -24.10124337 -0.88840824
v -36.18336950 21.22003375 -0.48729205
v -36.18336950 21.22003375 1.15144098
v -38.14012200 21.01178810 -0.48729205
v -38.14012200 21.01178810 1.15144098
v -36.68102974 25.89623192 -0.48729205
v -36.68102974 25.89623192 1.15144098
v -38.63778224 25.68798627 -0.48729205
v -38.63778224 25.68798627 1.15144098
v -29.95542840 -6.51330629 -0.78403467
v -29.95542840 -6.51330629 0.92208952
v -29.91610728 -5.82400616 -0.78403467
v -29.91610728 -5.82400616 0.92208952
v -29.03450002 -6.56584064 -0.78403467
v -29.03450002 -6.56584064 0.92208952
v -28.99517890 -5.87654051 -0.78403467
v -28.99517890 -5.87654051 0.92208952
v 35.77030397 -9.47689883 -3.13573045
v 35.77030397 -9.47689883 -1.39380199
v 35.78531779 -8.84864111 -3.13573045
v 35.78531779 -8.84864111 -1.39380199
v 36.47867452 -9.49382715 -3.13573045
v 36.47867452 -9.49382715 -1.39380199
v 36.49368834 -8.86556943 -3.13573045
v 36.49368834 -8.86556943 -1.39380199
v -40.77321441 -7.76691449 -0.55586767
v -40.77321441 -7.76691449 1.10370755
v -40.77758740 -7.06983972 -0.55586767
v -40.77758740 -7.06983972 1.10370755
v -39.96684314 -7.76185584 -0.55586767
v -39.96684314 -7.76185584 1.10370755
v -39.97121614 -7.06478107 -0.55586767
v -39.97121614 -7.06478107 1.10370755
v -15.85440623 -17.47080912 -2.13302380
v -15.85440623 -17.47080912 -0.37805504
v -15.19230320 -17.39360880 -2.13302380
v -15.19230320 -17.39360880 -0.37805504
v -15.77350185 -18.16467977 -2.13302380
v -15.77350185 -18.16467977 -0.37805504
v -15.11139882 -18.08747945 -2.13302380
v -15.11139882 -18.08747945 -0.37805504
v 41.81363843 -8.25515019 -3.44677281
v 41.81363843 -8.25515019 -1.70705247
v 41.79663191 -8.88346715 -3.44677281
v 41.79663191 -8.88346715 -1.70705247
v 41.13859453 -8.23687892 -3.44677281
v 41.13859453 -8.23687892 -1.70705247
v 41.12158801 -8.86519588 -3.44677281
v 41.12158801 -8.86519588 -1.70705247
v -9.88437472 -53.55670054 -2.36475879
v -9.88437472 -53.55670054 -0.54311532
v -9.77192222 -54.33071735 -2.36475879
v -9.77192222 -54.33071735 -0.54311532
v -10.64447487 -53.66713116 -2.36475879
v -10.64447487 -53.66713116 -0.54311532
v -10.53202238 -54.44114797 -2.36475879
v -10.53202238 -54.44114797 -0.54311532
v -22.83307050 11.12333517 -0.98427474
v -22.83307050 11.12333517 0.77401209
v -22.95717871 10.49189448 -0.98427474
v -22.95717871 10.49189448 0.77401209
v -23.52582300 11.25949407 -0.98427474
v -23.52582300 11.25949407 0.77401209
v -23.64993121 10.62805338 -0.98427474
v -23.64993121 10.62805338 0.77401209
v -22.10231174 8.88310280 -0.95058215
v -22.10231174 8.88310280 0.79556322
v -22.16099185 8.21425688 -0.95058215
v -22.16099185 8.21425688 0.79556322
v -22.90486508 8.95351351 -0.95058215
v -22.90486508 8.95351351 0.79556322
v -22.96354519 8.28466759 -0.95058215
v -22.96354519 8.28466759 0.79556322
v -54.26819131 -0.76911879 0.19759053
v -54.26819131 -0.76911879 2.00152665
v -54.06185211 1.18420885 0.19759053
v -54.06185211 1.18420885 2.00152665
v -49.56041657 -1.26642320 0.19759053
v -49.56041657 -1.26642320 2.00152665
v -49.35407737 0.68690444 0.19759053
v -49.35407737 0.68690444 2.00152665
v -12.24207133 9.20842689 -1.59139383
v -12.24207133 9.20842689 0.02447772
v -11.93988514 9.72024114 -1.59139383
v -11.93988514 9.72024114 0.02447772
v -11.75980663 8.92368739 -1.59139383
v -11.75980663 8.92368739 0.02447772
v -11.45762044 9.43550164 -1.59139383
v -11.45762044 9.43550164 0.02447772
v -32.37325268 -40.81958847 -1.62952089
v -32.37325268 -40.81958847 0.16971278
v -32.65196479 -41.46868051 -1.62952089
v -32.65196479 -41.46868051 0.16971278
v -33.04739129 -40.53012167 -1.62952089
v -33.04739129 -40.53012167 0.16971278
v -33.32610340 -41.17921372 -1.62952089
v -33.32610340 -41.17921372 0.16971278
v 35.75191882 -9.13206597 -3.17511678
v 35.75191882 -9.13206597 -1.39858556
v 35.77771950 -8.47288519 -3.17511678
v 35.77771950 -8.47288519 -1.39858556
v 36.48947715 -9.16093439 -3.17511678
v 36.48947715 -9.16093439 -1.39858556
v 36.51527783 -8.50175361 -3.17511678
v 36.51527783 -8.50175361 -1.39858556
v -30.78312438 -39.92741299 -1.54602337
v -30.78312438 -39.92741299 0.26700222
v -30.10761480 -39.75567644 -1.54602337
v -30.10761480 -39.75567644 0.26700222
v -30.61084528 -40.60505660 -1.54602337
v -30.61084528 -40.60505660 0.26700222
v -29.93533571 -40.43332004 -1.54602337
v -29.93533571 -40.43332004 0.26700222
v 49.94732563 4.63113509 -3.55997717
v 49.94732563 4.63113509 -1.81494176
v 49.97297973 5.26316286 -3.55997717
v 49.97297973 5.26316286 -1.81494176
v 50.59361726 4.60490202 -3.55997717
v 50.59361726 4.60490202 -1.81494176
v 50.61927136 5.23692979 -3.55997717
v 50.61927136 5.23692979 -1.81494176
v -28.24919508 8.77060464 -0.71407944
v -28.24919508 8.77060464 1.05404550
v -28.29724864 8.09294768 -0.71407944
v -28.29724864 8.09294768 1.05404550
v -28.99506398 8.82349520 -0.71407944
v -28.99506398 8.82349520 1.05404550
v -29.04311754 8.14583823 -0.71407944
v -29.04311754 8.14583823 1.05404550
v -8.88520159 32.12925845 -2.08493471
v -8.88520159 32.12925845 -0.34296107
v -8.23536135 32.13430612 -2.08493471
v -8.23536135 32.13430612 -0.34296107
v -8.88034605 31.50415213 -2.08493471
v -8.88034605 31.50415213 -0.34296107
v -8.23050580 31.50919980 -2.08493471
v -8.23050580 31.50919980 -0.34296107
v -0.27151043 6.19474231 -1.60172176
v -0.27151043 6.19474231 0.03158700
v -0.25781093 6.76262490 -1.60172176
v -0.25781093 6.76262490 0.03158700
v 0.48404537 6.17651542 -1.60172176
v 0.48404537 6.17651542 0.03158700
v 0.49774486 6.74439801 -1.60172176
v 0.49774486 6.74439801 0.03158700
v 46.61655808 -11.50906469 -3.65342414
v 46.61655808 -11.50906469 -1.87086117
v 46.59332658 -12.14411327 -3.65342414
v 46.59332658 -12.14411327 -1.87086117
v 45.96183394 -11.48511342 -3.65342414
v 45.96183394 -11.48511342 -1.87086117
v 45.93860244 -12.12016199 -3.65342414
v 45.93860244 -12.12016199 -1.87086117
v -33.79814911 11.26497310 -0.67687118
v -33.79814911 11.26497310 1.05854857
v -33.84448448 10.58312948 -0.67687118
v -33.84448448 10.58312948 1.05854857
v -34.55546364 11.31643717 -0.67687118
v -34.55546364 11.31643717 1.05854857
v -34.60179901 10.63459355 -0.67687118
v -34.60179901 10.63459355 1.05854857
f 2 4 1
f 5 2 1
f 1 4 3
f 3 5 1
f 2 8 4
f 6 2 5
f 6 8 2
f 4 8 3
f 7 5 3
f 3 8 7
f 7 6 5
f 8 6 7
f 10 12 9
f 13 10 9
f 9 12 11
f 11 13 9
f 10 16 12
f 14 10 13
f 14 16 10
f 12 16 11
f 15 13 11
f 11 16 15
f 15 14 13
f 16 14 15
f 18 20 17
f 21 18 17
f 17 20 19
f 19 21 17
f 18 24 20
f 22 18 21
f 22 24 18
f 20 24 19
f 23 21 19
f 19 24 23
f 23 22 21
f 24 22 23
f 26 28 25
f 29 26 25
f 25 28 27
f 27 29 25
f 26 32 28
f 30 26 29
f 30 32 26
f 28 32 27
f 31 29 27
f 27 32 31
f 31 30 29
f 32 30 31
f 34 36 33
f 37 34 33
f 33 36 35
f 35 37 33
f 34 40 36
f 38 34 37
f 38 40 34
f 36 40 35
f 39 37 35
f 35 40 39
f 39 38 37
f 40 38 39
f 42 44 41
f 45 42 41
f 41 44 43
f 43 45 41
f 42 48 44
f 46 42 45
f 46 48 42
f 44 48 43
f 47 45 43
f 43 48 47
f 47 46 45
f 48 46 47
f 50 52 49
f 53 50 49
f 49 52 51
f 51 53 49
f 50 56 52
f 54 50 53
f 54 56 50
f 52 56 51
f 55 53 51
f 51 56 55
f 55 54 53
f 56 54 55
f 58 60 57
f 61 58 57
f 57 60 59
f 59 61 57
f 58 64 60
f 62 58 61
f 62 64 58
f 60 64 59
f 63 61 59
f 59 64 63
f 63 62 61
f 64 62 63
f 66 68 65
f 69 66 65
f 65 68 67
f 67 69 65
f 66 72 68
f 70 66 69
f 70 72 66
f 68 72 67
f 71 69 67
f 67 72 71
f 71 70 69
f 72 70 71
f 74 76 73
f 77 74 73
f 73 76 75
f 75 77 73
f 74 80 76
f 78 74 77
f 78 80 74
f 76 80 75
f 79 77 75
f 75 80 79
f 79 78 77
f 80 78 79
f 82 84 81
f 85 82 81
f 81 84 83
f 83 85 81
f 82 88 84
f 86 82 85
f 86 88 82
f 84 88 83
f 87 85 83
f 83 88 87
f 87 86 85
f 88 86 87
f 90 92 89
f 93 90 89
f 89 92 91
f 91 93 89
f 90 96 92
f 94 90 93
f 94 96 90
f 92 96 91
f 95 93 91
f 91 96 95
f 95 94 93
f 96 94 95
f 98 100 97
f 101 98 97
f 97 100 99
f 99 101 97
f 98 104 100
f 102 98 101
f 102 104 98
f 100 104 99
f 103 101 99
f 99 104 103
f 103 102 101
f 104 102 103
f 106 108 105
f 109 106 105
f 105 108 107
f 107 109 105
f 106 112 108
f 110 106 109
f 110 112 106
f 108 112 107
f 111 109 107
f 107 112 111
f 111 110 109
f 112 110 111
f 114 116 113
f 117 114 113
f 113 116 115
f 115 117 113
f 114 120 116
f 118 114 117
f 118 120 114
f 116 120 115
f 119 117 115
f 115 120 119
f 119 118 117
f 120 118 119
f 122 124 121
f 125 122 121
f 121 124 123
f 123 125 121
f 122 128 124
f 126 122 125
f 126 128 122
f 124 128 123
f 127 125 123
f 123 128 127
f 127 126 125
f 128 126 127
f 130 132 129
f 133 130 129
f 129 132 131
f 131 133 129
f 130 136 132
f 134 130 133
f 134 136 130
f 132 136 131
f 135 133 131
f 131 136 135
f 135 134 133
f 136 134 135
f 138 140 137
f 141 138 137
f 137 140 139
f 139 141 137
f 138 144 140
f 142 138 141
f 142 144 138
f 140 144 139
f 143 141 139
f 139 144 143
f 143 142 141
f 144 142 143
f 146 148 145
f 149 146 145
f 145 148 147
f 147 149 145
f 146 152 148
f 150 146 149
f 150 152 146
f 148 152 147
f 151 149 147
f 147 152 151
f 151 150 149
f 152 150 151
f 154 156 153
f 157 154 153
f 153 156 155
f 155 157 153
f 154 160 156
f 158 154 157
f 158 160 154
f 156 160 155
f 159 157 155
f 155 160 159
f 159 158 157
f 160 158 159
f 162 164 161
f 165 162 161
f 161 164 163
f 163 165 161
f 162 168 164
f 166 162 165
f 166 168 162
f 164 168 163
f 167 165 163
f 163 168 167
f 167 166 165
f 168 166 167
f 170 172 169
f 173 170 169
f 169 172 171
f 171 173 169
f 170 176 172
f 174 170 173
f 174 176 170
f 172 176 171
f 175 173 171
f 171 176 175
f 175 174 173
f 176 174 175
f 178 180 177
f 181 178 177
f 177 180 179
f 179 181 177
f 178 184 180
f 182 178 181
f 182 184 178
f 180 184 179
f 183 181 179
f 179 184 183
f 183 182 181
f 184 182 183
f 186 188 185
f 189 186 185
f 185 188 187
f 187 189 185
f 186 192 188
f 190 186 189
f 190 192 186
f 188 192 187
f 191 189 187
f 187 192 191
f 191 190 189
f 192 190 191
f 194 196 193
f 197 194 193
f 193 196 195
f 195 197 193
f 194 200 196
f 198 194 197
f 198 200 194
f 196 200 195
f 199 197 195
f 195 200 199
f 199 198 197
f 200 198 199
f 202 204 201
f 205 202 201
f 201 204 203
f 203 205 201
f 202 208 204
f 206 202 205
f 206 208 202
f 204 208 203
f 207 205 203
f 203 208 207
f 207 206 205
f 208 206 207
f 210 212 209
f 213 210 209
f 209 212 211
f 211 213 209
f 210 216 212
f 214 210 213
f 214 216 210
f 212 216 211
f 215 213 211
f 211 216 215
f 215 214 213
f 216 214 215
f 218 220 217
f 221 218 217
f 217 220 219
f 219 221 217
f 218 224 220
f 222 218 221
f 222 224 218
f 220 224 219
f 223 221 219
f 219 224 223
f 223 222 221
f 224 222 223
f 226 228 225
f 229 226 225
f 225 228 227
f 227 229 225
f 226 232 228
f 230 226 229
f 230 232 226
f 228 232 227
f 231 229 227
f 227 232 231
f 231 230 229
f 232 230 231
f 234 236 233
f 237 234 233
f 233 236 235
f 235 237 233
f 234 240 236
f 238 234 237
f 238 240 234
f 236 240 235
f 239 237 235
f 235 240 239
f 239 238 237
f 240 238 239
f 242 244 241
f 245 242 241
f 241 244 243
f 243 245 241
f 242 248 244
f 246 242 245
f 246 248 242
f 244 248 243
f 247 245 243
f 243 248 247
f 247 246 245
f 248 246 247
f 250 252 249
f 253 250 249
f 249 252 251
f 251 253 249
f 250 256 252
f 254 250 253
f 254 256 250
f 252 256 251
f 255 253 251
f 251 256 255
f 255 254 253
f 256 254 255
f 258 260 257
f 261 258 257
f 257 260 259
f 259 261 257
f 258 264 260
f 262 258 261
f 262 264 258
f 260 264 259
f 263 261 259
f 259 264 263
f 263 262 261
f 264 262 263
f 266 268 265
f 269 266 265
f 265 268 267
f 267 269 265
f 266 272 268
f 270 266 269
f 270 272 266
f 268 272 267
f 271 269 267
f 267 272 271
f 271 270 269
f 272 270 271
f 274 276 273
f 277 274 273
f 273 276 275
f 275 277 273
f 274 280 276
f 278 274 277
f 278 280 274
f 276 280 275
f 279 277 275
f 275 280 279
f 279 278 277
f 280 278 279
f 282 284 281
f 285 282 281
f 281 284 283
f 283 285 281
f 282 288 284
f 286 282 285
f 286 288 282
f 284 288 283
f 287 285 283
f 283 288 287
f 287 286 285
f 288 286 287
f 290 292 289
f 293 290 289
f 289 292 291
f 291 293 289
f 290 296 292
f 294 290 293
f 294 296 290
f 292 296 291
f 295 293 291
f 291 296 295
f 295 294 293
f 296 294 295
f 298 300 297
f 301 298 297
f 297 300 299
f 299 301 297
f 298 304 300
f 302 298 301
f 302 304 298
f 300 304 299
f 303 301 299
f 299 304 303
f 303 302 301
f 304 302 303
f 306 308 305
f 309 306 305
f 305 308 307
f 307 309 305
f 306 312 308
f 310 306 309
f 310 312 306
f 308 312 307
f 311 309 307
f 307 312 311
f 311 310 309
f 312 310 311
f 314 316 313
f 317 314 313
f 313 316 315
f 315 317 313
f 314 320 316
f 318 314 317
f 318 320 314
f 316 320 315
f 319 317 315
f 315 320 319
f 319 318 317
f 320 318 319
f 322 324 321
f 325 322 321
f 321 324 323
f 323 325 321
f 322 328 324
f 326 322 325
f 326 328 322
f 324 328 323
f 327 325 323
f 323 328 327
f 327 326 325
f 328 326 327
f 330 332 329
f 333 330 329
f 329 332 331
f 331 333 329
f 330 336 332
f 334 330 333
f 334 336 330
f 332 336 331
f 335 333 331
f 331 336 335
f 335 334 333
f 336 334 335
f 338 340 337
f 341 338 337
f 337 340 339
f 339 341 337
f 338 344 340
f 342 338 341
f 342 344 338
f 340 344 339
f 343 341 339
f 339 344 343
f 343 342 341
f 344 342 343
f 346 348 345
f 349 346 345
f 345 348 347
f 347 349 345
f 346 352 348
f 350 346 349
f 350 352 346
f 348 352 347
f 351 349 347
f 347 352 351
f 351 350 349
f 352 350 351
f 354 356 353
f 357 354 353
f 353 356 355
f 355 357 353
f 354 360 356
f 358 354 357
f 358 360 354
f 356 360 355
f 359 357 355
f 355 360 359
f 359 358 357
f 360 358 359
f 362 364 361
f 365 362 361
f 361 364 363
f 363 365 361
f 362 368 364
f 366 362 365
f 366 368 362
f 364 368 363
f 367 365 363
f 363 368 367
f 367 366 365
f 368 366 367
f 370 372 369
f 373 370 369
f 369 372 371
f 371 373 369
f 370 376 372
f 374 370 373
f 374 376 370
f 372 376 371
f 375 373 371
f 371 376 375
f 375 374 373
f 376 374 375
f 378 380 377
f 381 378 377
f 377 380 379
f 379 381 377
f 378 384 380
f 382 378 381
f 382 384 378
f 380 384 379
f 383 381 379
f 379 384 383
f 383 382 381
f 384 382 383
f 386 388 385
f 389 386 385
f 385 388 387
f 387 389 385
f 386 392 388
f 390 386 389
f 390 392 386
f 388 392 387
f 391 389 387
f 387 392 391
f 391 390 389
f 392 390 391
f 394 396 393
f 397 394 393
f 393 396 395
f 395 397 393
f 394 400 396
f 398 394 397
f 398 400 394
f 396 400 395
f 399 397 395
f 395 400 399
f 399 398 397
f 400 398 399
f 402 404 401
f 405 402 401
f 401 404 403
f 403 405 401
f 402 408 404
f 406 402 405
f 406 408 402
f 404 408 403
f 407 405 403
f 403 408 407
f 407 406 405
f 408 406 407
f 410 412 409
f 413 410 409
f 409 412 411
f 411 413 409
f 410 416 412
f 414 410 413
f 414 416 410
f 412 416 411
f 415 413 411
f 411 416 415
f 415 414 413
f 416 414 415
f 418 420 417
f 421 418 417
f 417 420 419
f 419 421 417
f 418 424 420
f 422 418 421
f 422 424 418
f 420 424 419
f 423 421 419
f 419 424 423
f 423 422 421
f 424 422 423
f 426 428 425
f 429 426 425
f 425 428 427
f 427 429 425
f 426 432 428
f 430 426 429
f 430 432 426
f 428 432 427
f 431 429 427
f 427 432 431
f 431 430 429
f 432 430 431
f 434 436 433
f 437 434 433
f 433 436 435
f 435 437 433
f 434 440 436
f 438 434 437
f 438 440 434
f 436 440 435
f 439 437 435
f 435 440 439
f 439 438 437
f 440 438 439
f 442 444 441
f 445 442 441
f 441 444 443
f 443 445 441
f 442 448 444
f 446 442 445
f 446 448 442
f 444 448 443
f 447 445 443
f 443 448 447
f 447 446 445
f 448 446 447
f 450 452 449
f 453 450 449
f 449 452 451
f 451 453 449
f 450 456 452
f 454 450 453
f 454 456 450
f 452 456 451
f 455 453 451
f 451 456 455
f 455 454 453
f 456 454 455
f 458 460 457
f 461 458 457
f 457 460 459
f 459 461 457
f 458 464 460
f 462 458 461
f 462 464 458
f 460 464 459
f 463 461 459
f 459 464 463
f 463 462 461
f 464 462 463
f 466 468 465
f 469 466 465
f 465 468 467
f 467 469 465
f 466 472 468
f 470 466 469
f 470 472 466
f 468 472 467
f 471 469 467
f 467 472 471
f 471 470 469
f 472 470 471
f 474 476 473
f 477 474 473
f 473 476 475
f 475 477 473
f 474 480 476
f 478 474 477
f 478 480 474
f 476 480 475
f 479 477 475
f 475 480 479
f 479 478 477
f 480 478 479
f 482 484 481
f 485 482 481
f 481 484 483
f 483 485 481
f 482 488 484
f 486 482 485
f 486 488 482
f 484 488 483
f 487 485 483
f 483 488 487
f 487 486 485
f 488 486 487
f 490 492 489
f 493 490 489
f 489 492 491
f 491 493 489
f 490 496 492
f 494 490 493
f 494 496 490
f 492 496 491
f 495 493 491
f 491 496 495
f 495 494 493
f 496 494 495
f 498 500 497
f 501 498 497
f 497 500 499
f 499 501 497
f 498 504 500
f 502 498 501
f 502 504 498
f 500 504 499
f 503 501 499
f 499 504 503
f 503 502 501
f 504 502 503
f 506 508 505
f 509 506 505
f 505 508 507
f 507 509 505
f 506 512 508
f 510 506 509
f 510 512 506
f 508 512 507
f 511 509 507
f 507 512 511
f 511 510 509
f 512 510 511
f 514 516 513
f 517 514 513
f 513 516 515
f 515 517 513
f 514 520 516
f 518 514 517
f 518 520 514
f 516 520 515
f 519 517 515
f 515 520 519
f 519 518 517
f 520 518 519
f 522 524 521
f 525 522 521
f 521 524 523
f 523 525 521
f 522 528 524
f 526 522 525
f 526 528 522
f 524 528 523
f 527 525 523
f 523 528 527
f 527 526 525
f 528 526 527
f 530 532 529
f 533 530 529
f 529 532 531
f 531 533 529
f 530 536 532
f 534 530 533
f 534 536 530
f 532 536 531
f 535 533 531
f 531 536 535
f 535 534 533
f 536 534 535
f 538 540 537
f 541 538 537
f 537 540 539
f 539 541 537
f 538 544 540
f 542 538 541
f 542 544 538
f 540 544 539
f 543 541 539
f 539 544 543
f 543 542 541
f 544 542 543
f 546 548 545
f 549 546 545
f 545 548 547
f 547 549 545
f 546 552 548
f 550 546 549
f 550 552 546
f 548 552 547
f 551 549 547
f 547 552 551
f 551 550 549
f 552 550 551
f 554 556 553
f 557 554 553
f 553 556 555
f 555 557 553
f 554 560 556
f 558 554 557
f 558 560 554
f 556 560 555
f 559 557 555
f 555 560 559
f 559 558 557
f 560 558 559
f 562 564 561
f 565 562 561
f 561 564 563
f 563 565 561
f 562 568 564
f 566 562 565
f 566 568 562
f 564 568 563
f 567 565 563
f 563 568 567
f 567 566 565
f 568 566 567
f 570 572 569
f 573 570 569
f 569 572 571
f 571 573 569
f 570 576 572
f 574 570 573
f 574 576 570
f 572 576 571
f 575 573 571
f 571 576 575
f 575 574 573
f 576 574 575
f 578 580 577
f 581 578 577
f 577 580 579
f 579 581 577
f 578 584 580
f 582 578 581
f 582 584 578
f 580 584 579
f 583 581 579
f 579 584 583
f 583 582 581
f 584 582 583
f 586 588 585
f 589 586 585
f 585 588 587
f 587 589 585
f 586 592 588
f 590 586 589
f 590 592 586
f 588 592 587
f 591 589 587
f 587 592 591
f 591 590 589
f 592 590 591
f 594 596 593
f 597 594 593
f 593 596 595
f 595 597 593
f 594 600 596
f 598 594 597
f 598 600 594
f 596 600 595
f 599 597 595
f 595 600 599
f 599 598 597
f 600 598 599
f 602 604 601
f 605 602 601
f 601 604 603
f 603 605 601
f 602 608 604
f 606 602 605
f 606 608 602
f 604 608 603
f 607 605 603
f 603 608 607
f 607 606 605
f 608 606 607
f 610 612 609
f 613 610 609
f 609 612 611
f 611 613 609
f 610 616 612
f 614 610 613
f 614 616 610
f 612 616 611
f 615 613 611
f 611 616 615
f 615 614 613
f 616 614 615
f 618 620 617
f 621 618 617
f 617 620 619
f 619 621 617
f 618 624 620
f 622 618 621
f 622 624 618
f 620 624 619
f 623 621 619
f 619 624 623
f 623 622 621
f 624 622 623
f 626 628 625
f 629 626 625
f 625 628 627
f 627 629 625
f 626 632 628
f 630 626 629
f 630 632 626
f 628 632 627
f 631 629 627
f 627 632 631
f 631 630 629
f 632 630 631
f 634 636 633
f 637 634 633
f 633 636 635
f 635 637 633
f 634 640 636
f 638 634 637
f 638 640 634
f 636 640 635
f 639 637 635
f 635 640 639
f 639 638 637
f 640 638 639
f 642 644 641
f 645 642 641
f 641 644 643
f 643 645 641
f 642 648 644
f 646 642 645
f 646 648 642
f 644 648 643
f 647 645 643
f 643 648 647
f 647 646 645
f 648 646 647
f 650 652 649
f 653 650 649
f 649 652 651
f 651 653 649
f 650 656 652
f 654 650 653
f 654 656 650
f 652 656 651
f 655 653 651
f 651 656 655
f 655 654 653
f 656 654 655
f 658 660 657
f 661 658 657
f 657 660 659
f 659 661 657
f 658 664 660
f 662 658 661
f 662 664 658
f 660 664 659
f 663 661 659
f 659 664 663
f 663 662 661
f 664 662 663
f 666 668 665
f 669 666 665
f 665 668 667
f 667 669 665
f 666 672 668
f 670 666 669
f 670 672 666
f 668 672 667
f 671 669 667
f 667 672 671
f 671 670 669
f 672 670 671
f 674 676 673
f 677 674 673
f 673 676 675
f 675 677 673
f 674 680 676
f 678 674 677
f 678 680 674
f 676 680 675
f 679 677 675
f 675 680 679
f 679 678 677
f 680 678 679
f 682 684 681
f 685 682 681
f 681 684 683
f 683 685 681
f 682 688 684
f 686 682 685
f 686 688 682
f 684 688 683
f 687 685 683
f 683 688 687
f 687 686 685
f 688 686 687
f 690 692 689
f 693 690 689
f 689 692 691
f 691 693 689
f 690 696 692
f 694 690 693
f 694 696 690
f 692 696 691
f 695 693 691
f 691 696 695
f 695 694 693
f 696 694 695
f 698 700 697
f 701 698 697
f 697 700 699
f 699 701 697
f 698 704 700
f 702 698 701
f 702 704 698
f 700 704 699
f 703 701 699
f 699 704 703
f 703 702 701
f 704 702 703
f 706 708 705
f 709 706 705
f 705 708 707
f 707 709 705
f 706 712 708
f 710 706 709
f 710 712 706
f 708 712 707
f 711 709 707
f 707 712 711
f 711 710 709
f 712 710 711
f 714 716 713
f 717 714 713
f 713 716 715
f 715 717 713
f 714 720 716
f 718 714 717
f 718 720 714
f 716 720 715
f 719 717 715
f 715 720 719
f 719 718 717
f 720 718 719
f 722 724 721
f 725 722 721
f 721 724 723
f 723 725 721
f 722 728 724
f 726 722 725
f 726 728 722
f 724 728 723
f 727 725 723
f 723 728 727
f 727 726 725
f 728 726 727
f 730 732 729
f 733 730 729
f 729 732 731
f 731 733 729
f 730 736 732
f 734 730 733
f 734 736 730
f 732 736 731
f 735 733 731
f 731 736 735
f 735 734 733
f 736 734 735
f 738 740 737
f 741 738 737
f 737 740 739
f 739 741 737
f 738 744 740
f 742 738 741
f 742 744 738
f 740 744 739
f 743 741 739
f 739 744 743
f 743 742 741
f 744 742 743
f 746 748 745
f 749 746 745
f 745 748 747
f 747 749 745
f 746 752 748
f 750 746 749
f 750 752 746
f 748 752 747
f 751 749 747
f 747 752 751
f 751 750 749
f 752 750 751
f 754 756 753
f 757 754 753
f 753 756 755
f 755 757 753
f 754 760 756
f 758 754 757
f 758 760 754
f 756 760 755
f 759 757 755
f 755 760 759
f 759 758 757
f 760 758 759
f 762 764 761
f 765 762 761
f 761 764 763
f 763 765 761
f 762 768 764
f 766 762 765
f 766 768 762
f 764 768 763
f 767 765 763
f 763 768 767
f 767 766 765
f 768 766 767
f 770 772 769
f 773 770 769
f 769 772 771
f 771 773 769
f 770 776 772
f 774 770 773
f 774 776 770
f 772 776 771
f 775 773 771
f 771 776 775
f 775 774 773
f 776 774 775
f 778 780 777
f 781 778 777
f 777 780 779
f 779 781 777
f 778 784 780
f 782 778 781
f 782 784 778
f 780 784 779
f 783 781 779
f 779 784 783
f 783 782 781
f 784 782 783
f 786 788 785
f 789 786 785
f 785 788 787
f 787 789 785
f 786 792 788
f 790 786 789
f 790 792 786
f 788 792 787
f 791 789 787
f 787 792 791
f 791 790 789
f 792 790 791
f 794 796 793
f 797 794 793
f 793 796 795
f 795 797 793
f 794 800 796
f 798 794 797
f 798 800 794
f 796 800 795
f 799 797 795
f 795 800 799
f 799 798 797
f 800 798 799
f 802 804 801
f 805 802 801
f 801 804 803
f 803 805 801
f 802 808 804
f 806 802 805
f 806 808 802
f 804 808 803
f 807 805 803
f 803 808 807
f 807 806 805
f 808 806 807
f 810 812 809
f 813 810 809
f 809 812 811
f 811 813 809
f 810 816 812
f 814 810 813
f 814 816 810
f 812 816 811
f 815 813 811
f 811 816 815
f 815 814 813
f 816 814 815
f 818 820 817
f 821 818 817
f 817 820 819
f 819 821 817
f 818 824 820
f 822 818 821
f 822 824 818
f 820 824 819
f 823 821 819
f 819 824 823
f 823 822 821
f 824 822 823
f 826 828 825
f 829 826 825
f 825 828 827
f 827 829 825
f 826 832 828
f 830 826 829
f 830 832 826
f 828 832 827
f 831 829 827
f 827 832 831
f 831 830 829
f 832 830 831
f 834 836 833
f 837 834 833
f 833 836 835
f 835 837 833
f 834 840 836
f 838 834 837
f 838 840 834
f 836 840 835
f 839 837 835
f 835 840 839
f 839 838 837
f 840 838 839
f 842 844 841
f 845 842 841
f 841 844 843
f 843 845 841
f 842 848 844
f 846 842 845
f 846 848 842
f 844 848 843
f 847 845 843
f 843 848 847
f 847 846 845
f 848 846 847
f 850 852 849
f 853 850 849
f 849 852 851
f 851 853 849
f 850 856 852
f 854 850 853
f 854 856 850
f 852 856 851
f 855 853 851
f 851 856 855
f 855 854 853
f 856 854 855
f 858 860 857
f 861 858 857
f 857 860 859
f 859 861 857
f 858 864 860
f 862 858 861
f 862 864 858
f 860 864 859
f 863 861 859
f 859 864 863
f 863 862 861
f 864 862 863
f 866 868 865
f 869 866 865
f 865 868 867
f 867 869 865
f 866 872 868
f 870 866 869
f 870 872 866
f 868 872 867
f 871 869 867
f 867 872 871
f 871 870 869
f 872 870 871
f 874 876 873
f 877 874 873
f 873 876 875
f 875 877 873
f 874 880 876
f 878 874 877
f 878 880 874
f 876 880 875
f 879 877 875
f 875 880 879
f 879 878 877
f 880 878 879
f 882 884 881
f 885 882 881
f 881 884 883
f 883 885 881
f 882 888 884
f 886 882 885
f 886 888 882
f 884 888 883
f 887 885 883
f 883 888 887
f 887 886 885
f 888 886 887
f 890 892 889
f 893 890 889
f 889 892 891
f 891 893 889
f 890 896 892
f 894 890 893
f 894 896 890
f 892 896 891
f 895 893 891
f 891 896 895
f 895 894 893
f 896 894 895
f 898 900 897
f 901 898 897
f 897 900 899
f 899 901 897
f 898 904 900
f 902 898 901
f 902 904 898
f 900 904 899
f 903 901 899
f 899 904 903
f 903 902 901
f 904 902 903
f 906 908 905
f 909 906 905
f 905 908 907
f 907 909 905
f 906 912 908
f 910 906 909
f 910 912 906
f 908 912 907
f 911 909 907
f 907 912 911
f 911 910 909
f 912 910 911
f 914 916 913
f 917 914 913
f 913 916 915
f 915 917 913
f 914 920 916
f 918 914 917
f 918 920 914
f 916 920 915
f 919 917 915
f 915 920 919
f 919 918 917
f 920 918 919
f 922 924 921
f 925 922 921
f 921 924 923
f 923 925 921
f 922 928 924
f 926 922 925
f 926 928 922
f 924 928 923
f 927 925 923
f 923 928 927
f 927 926 925
f 928 926 927
f 930 932 929
f 933 930 929
f 929 932 931
f 931 933 929
f 930 936 932
f 934 930 933
f 934 936 930
f 932 936 931
f 935 933 931
f 931 936 935
f 935 934 933
f 936 934 935
f 938 940 937
f 941 938 937
f 937 940 939
f 939 941 937
f 938 944 940
f 942 938 941
f 942 944 938
f 940 944 939
f 943 941 939
f 939 944 943
f 943 942 941
f 944 942 943
f 946 948 945
f 949 946 945
f 945 948 947
f 947 949 945
f 946 952 948
f 950 946 949
f 950 952 946
f 948 952 947
f 951 949 947
f 947 952 951
f 951 950 949
f 952 950 951
f 954 956 953
f 957 954 953
f 953 956 955
f 955 957 953
f 954 960 956
f 958 954 957
f 958 960 954
f 956 960 955
f 959 957 955
f 955 960 959
f 959 958 957
f 960 958 959
f 962 964 961
f 965 962 961
f 961 964 963
f 963 965 961
f 962 968 964
f 966 962 965
f 966 968 962
f 964 968 963
f 967 965 963
f 963 968 967
f 967 966 965
f 968 966 967
f 970 972 969
f 973 970 969
f 969 972 971
f 971 973 969
f 970 976 972
f 974 970 973
f 974 976 970
f 972 976 971
f 975 973 971
f 971 976 975
f 975 974 973
f 976 974 975