v 3.94612989 6.72248484 -1.80639172
v 3.94612989 6.72248484 -0.01399922
v 3.95260671 6.08869030 -1.80639172
v 3.95260671 6.08869030 -0.01399922
v 3.19630381 6.71482227 -1.80639172
v 3.19630381 6.71482227 -0.01399922
v 3.20278063 6.08102774 -1.80639172
v 3.20278063 6.08102774 -0.01399922
v -13.02826146 6.74947930 -1.27999294
v -13.02826146 6.74947930 0.55873060
v -12.93740216 7.48710030 -1.27999294
v -12.93740216 7.48710030 0.55873060
v -12.16014728 6.64254600 -1.27999294
v -12.16014728 6.64254600 0.55873060
v -12.06928798 7.38016700 -1.27999294
v -12.06928798 7.38016700 0.55873060
v 4.07872794 5.87408016 -1.81283009
v 4.07872794 5.87408016 -0.05099809
v 4.07739674 5.24705186 -1.81283009
v 4.07739674 5.24705186 -0.05099809
v 3.32771648 5.87567458 -1.81283009
v 3.32771648 5.87567458 -0.05099809
v 3.32638528 5.24864628 -1.81283009
v 3.32638528 5.24864628 -0.05099809
v 22.13952211 1.34111182 -2.69316006
v 22.13952211 1.34111182 -1.18753433
v 22.15293657 -0.55617668 -2.69316006
v 22.15293657 -0.55617668 -1.18753433
v 17.50596846 1.30835106 -2.69316006
v 17.50596846 1.30835106 -1.18753433
v 17.51938292 -0.58893745 -2.69316006
v 17.51938292 -0.58893745 -1.18753433
v 30.73952245 -3.67379247 -3.16336161
v 30.73952245 -3.67379247 -1.62691492
v 30.72942479 -1.76358072 -3.16336161
v 30.72942479 -1.76358072 -1.62691492
v 35.47980372 -3.64873464 -3.16336161
v 35.47980372 -3.64873464 -1.62691492
v 35.46970606 -1.73852290 -3.16336161
v 35.46970606 -1.73852290 -1.62691492
v -10.14568578 -10.96229837 -1.54481912
v -10.14568578 -10.96229837 0.18193185
v -10.15385058 -10.27489477 -1.54481912
v -10.15385058 -10.27489477 0.18193185
v -9.29564283 -10.95220179 -1.54481912
v -9.29564283 -10.95220179 0.18193185
v -9.30380762 -10.26479818 -1.54481912
v -9.30380762 -10.26479818 0.18193185
v -25.26999001 8.73335553 -0.99387652
v -25.26999001 8.73335553 0.76326758
v -25.19343216 9.44036660 -0.99387652
v -25.19343216 9.44036660 0.76326758
v -24.44704025 8.64424339 -0.99387652
v -24.44704025 8.64424339 0.76326758
v -24.37048240 9.35125445 -0.99387652
v -24.37048240 9.35125445 0.76326758
v -27.60055229 -6.98030177 -0.92270815
v -27.60055229 -6.98030177 0.86605167
v -27.86529202 -6.32034965 -0.92270815
v -27.86529202 -6.32034965 0.86605167
v -26.87121921 -6.68772988 -0.92270815
v -26.87121921 -6.68772988 0.86605167
v -27.13595894 -6.02777776 -0.92270815
v -27.13595894 -6.02777776 0.86605167
v -32.63489324 -9.61824742 -0.74433571
v -32.63489324 -9.61824742 1.03590769
v -32.59124770 -8.96754818 -0.74433571
v -32.59124770 -8.96754818 1.03590769
v -31.90811143 -9.66699619 -0.74433571
v -31.90811143 -9.66699619 1.03590769
v -31.86446589 -9.01629696 -0.74433571
v -31.86446589 -9.01629696 1.03590769
v -14.45795882 -10.08675821 -1.42418659
v -14.45795882 -10.08675821 0.31777930
v -14.45884985 -9.38551933 -1.42418659
v -14.45884985 -9.38551933 0.31777930
v -13.60917383 -10.08567970 -1.42418659
v -13.60917383 -10.08567970 0.31777930
v -13.61006486 -9.38444082 -1.42418659
v -13.61006486 -9.38444082 0.31777930
v -25.28831732 10.86215441 -1.02010703
v -25.28831732 10.86215441 0.75324047
v -25.35495929 10.18470551 -1.02010703
v -25.35495929 10.18470551 0.75324047
v -26.08342572 10.94037078 -1.02010703
v -26.08342572 10.94037078 0.75324047
v -26.15006769 10.26292188 -1.02010703
v -26.15006769 10.26292188 0.75324047
v -38.95263921 7.10213489 -0.17653835
v -38.95263921 7.10213489 1.44441056
v -39.22425341 5.20583561 -0.17653835
v -39.22425341 5.20583561 1.44441056
v -43.49684644 7.75301907 -0.17653835
v -43.49684644 7.75301907 1.44441056
v -43.76846064 5.85671979 -0.17653835
v -43.76846064 5.85671979 1.44441056
v 31.39284533 -9.61432711 -3.07941020
v 31.39284533 -9.61432711 -1.28436220
v 31.39351024 -8.94490355 -3.07941020
v 31.39351024 -8.94490355 -1.28436220
v 32.17264424 -9.61510164 -3.07941020
v 32.17264424 -9.61510164 -1.28436220
v 32.17330915 -8.94567808 -3.07941020
v 32.17330915 -8.94567808 -1.28436220
v -30.04803830 10.04176037 -0.84297949
v -30.04803830 10.04176037 0.86993855
v -30.00326939 10.71173361 -0.84297949
v -30.00326939 10.71173361 0.86993855
v -29.29973965 9.99175760 -0.84297949
v -29.29973965 9.99175760 0.86993855
v -29.25497073 10.66173084 -0.84297949
v -29.25497073 10.66173084 0.86993855
v -23.25796576 10.56803825 -1.02359247
v -23.25796576 10.56803825 0.76448298
v -23.34143289 9.87763251 -1.02359247
v -23.34143289 9.87763251 0.76448298
v -24.06921164 10.66611444 -1.02359247
v -24.06921164 10.66611444 0.76448298
v -24.15267877 9.97570870 -1.02359247
v -24.15267877 9.97570870 0.76448298
v -32.16144641 -8.99258154 -0.78362417
v -32.16144641 -8.99258154 0.94698191
v -32.11564817 -8.35580787 -0.78362417
v -32.11564817 -8.35580787 0.94698191
v -31.44479189 -9.04412499 -0.78362417
v -31.44479189 -9.04412499 0.94698191
v -31.39899366 -8.40735132 -0.78362417
v -31.39899366 -8.40735132 0.94698191
v 42.15561182 -8.49300270 -3.46956974
v 42.15561182 -8.49300270 -1.68142694
v 42.15388028 -9.12692344 -3.46956974
v 42.15388028 -9.12692344 -1.68142694
v 41.42392428 -8.49100411 -3.46956974
v 41.42392428 -8.49100411 -1.68142694
v 41.42219274 -9.12492485 -3.46956974
v 41.42219274 -9.12492485 -1.68142694
v -18.42201151 -40.72176340 -1.77262020
v -18.42201151 -40.72176340 0.03343296
v -17.76770844 -40.47812111 -1.77262020
v -17.76770844 -40.47812111 0.03343296
v -18.16791473 -41.40414208 -1.77262020
v -18.16791473 -41.40414208 0.03343296
v -17.51361166 -41.16049978 -1.77262020
v -17.51361166 -41.16049978 0.03343296
v -12.45438163 -40.93022614 -2.27570552
v -12.45438163 -40.93022614 -0.45240146
v -11.74227580 -40.96111998 -2.27570552
v -11.74227580 -40.96111998 -0.45240146
v -12.48651448 -41.67089144 -2.27570552
v -12.48651448 -41.67089144 -0.45240146
v -11.77440865 -41.70178527 -2.27570552
v -11.77440865 -41.70178527 -0.45240146
v -32.59823350 10.58645174 -0.70863789
v -32.59823350 10.58645174 0.96537465
v -32.54572001 11.22920645 -0.70863789
v -32.54572001 11.22920645 0.96537465
v -31.88292989 10.52801096 -0.70863789
v -31.88292989 10.52801096 0.96537465
v -31.83041641 11.17076567 -0.70863789
v -31.83041641 11.17076567 0.96537465
v -49.99036686 -5.49389146 0.15721726
v -49.99036686 -5.49389146 1.93707657
v -50.04773982 -6.14348692 0.15721726
v -50.04773982 -6.14348692 1.93707657
v -50.68561284 -5.43248659 0.15721726
v -50.68561284 -5.43248659 1.93707657
v -50.74298580 -6.08208205 0.15721726
v -50.74298580 -6.08208205 1.93707657
v -49.67165269 15.96988409 0.52248555
v -49.67165269 15.96988409 2.31444973
v -49.72900874 15.31805605 0.52248555
v -49.72900874 15.31805605 2.31444973
v -50.35567754 16.03007323 0.52248555
v -50.35567754 16.03007323 2.31444973
v -50.41303359 15.37824518 0.52248555
v -50.41303359 15.37824518 2.31444973
v 46.67915144 -8.25319148 -3.66109663
v 46.67915144 -8.25319148 -1.90940422
v 46.68632224 -8.87575514 -3.66109663
v 46.68632224 -8.87575514 -1.90940422
v 45.94145486 -8.26168840 -3.66109663
v 45.94145486 -8.26168840 -1.90940422
v 45.94862566 -8.88425207 -3.66109663
v 45.94862566 -8.88425207 -1.90940422
v -42.17876257 -0.63324577 -0.31240398
v -42.17876257 -0.63324577 1.35229319
v -42.02826369 1.30891343 -0.31240398
v -42.02826369 1.30891343 1.35229319
v -37.47059190 -0.99808427 -0.31240398
v -37.47059190 -0.99808427 1.35229319
v -37.32009302 0.94407494 -0.31240398
v -37.32009302 0.94407494 1.35229319
v 39.70960675 -8.40864496 -3.34422737
v 39.70960675 -8.40864496 -1.54818290
v 39.70065055 -9.06255043 -3.34422737
v 39.70065055 -9.06255043 -1.54818290
v 38.92668405 -8.39792167 -3.34422737
v 38.92668405 -8.39792167 -1.54818290
v 38.91772784 -9.05182714 -3.34422737
v 38.91772784 -9.05182714 -1.54818290
v 46.71366126 -8.67664934 -3.67988497
v 46.71366126 -8.67664934 -1.93606275
v 46.72295784 -9.28310803 -3.67988497
v 46.72295784 -9.28310803 -1.93606275
v 46.01106621 -8.68741962 -3.67988497
v 46.01106621 -8.68741962 -1.93606275
v 46.02036278 -9.29387831 -3.67988497
v 46.02036278 -9.29387831 -1.93606275
v -23.89247226 -12.95732149 -1.30209517
v -23.89247226 -12.95732149 -0.04284668
v -23.26273250 -12.94491942 -1.30209517
v -23.26273250 -12.94491942 -0.04284668
v -23.87795354 -13.69453829 -1.30209517
v -23.87795354 -13.69453829 -0.04284668
v -23.24821377 -13.68213621 -1.30209517
v -23.24821377 -13.68213621 -0.04284668
v -5.05594928 32.63809884 -2.19102120
v -5.05594928 32.63809884 -0.38057971
v -5.73360280 32.66343538 -2.19102120
v -5.73360280 32.66343538 -0.38057971
v -5.03103038 33.30458220 -2.19102120
v -5.03103038 33.30458220 -0.38057971
v -5.70868389 33.32991874 -2.19102120
v -5.70868389 33.32991874 -0.38057971
v -9.27812898 -36.84066691 -2.46004003
v -9.27812898 -36.84066691 -0.93193489
v -8.61049761 -36.74033436 -2.46004003
v -8.61049761 -36.74033436 -0.93193489
v -9.17171369 -37.54877392 -2.46004003
v -9.17171369 -37.54877392 -0.93193489
v -8.50408233 -37.44844136 -2.46004003
v -8.50408233 -37.44844136 -0.93193489
v -10.76926827 -46.63163562 -2.49478978
v -10.76926827 -46.63163562 -0.62077171
v -10.03427957 -46.61454857 -2.49478978
v -10.03427957 -46.61454857 -0.62077171
v -10.75154806 -47.39385902 -2.49478978
v -10.75154806 -47.39385902 -0.62077171
v -10.01655937 -47.37677197 -2.49478978
v -10.01655937 -47.37677197 -0.62077171
v -49.91355335 -1.82155750 0.01670820
v -49.91355335 -1.82155750 1.65544635
v -49.68120781 0.09043466 0.01670820
v -49.68120781 0.09043466 1.65544635
v -45.15201362 -2.40018044 0.01670820
v -45.15201362 -2.40018044 1.65544635
v -44.91966808 -0.48818829 0.01670820
v -44.91966808 -0.48818829 1.65544635
v -13.10406283 -22.46811628 -2.14997882
v -13.10406283 -22.46811628 -0.88927490
v -12.49934170 -22.46496472 -2.14997882
v -12.49934170 -22.46496472 -0.88927490
v -13.10060337 -23.13191715 -2.14997882
v -13.10060337 -23.13191715 -0.88927490
v -12.49588224 -23.12876559 -2.14997882
v -12.49588224 -23.12876559 -0.88927490
v -24.47880028 -15.61999236 -1.43751943
v -24.47880028 -15.61999236 0.07528508
v -23.85527143 -15.83759357 -1.43751943
v -23.85527143 -15.83759357 0.07528508
v -24.71189776 -16.28792523 -1.43751943
v -24.71189776 -16.28792523 0.07528508
v -24.08836891 -16.50552644 -1.43751943
v -24.08836891 -16.50552644 0.07528508
v -7.83398533 -39.17681462 -2.51922703
v -7.83398533 -39.17681462 -1.08825421
v -7.20476474 -38.96843848 -2.51922703
v -7.20476474 -38.96843848 -1.08825421
v -7.60351620 -39.87274804 -2.51922703
v -7.60351620 -39.87274804 -1.08825421
v -6.97429561 -39.66437190 -2.51922703
v -6.97429561 -39.66437190 -1.08825421
v -7.33755656 17.11781454 -1.78765559
v -7.33755656 17.11781454 -0.10130620
v -6.73249953 17.09039295 -1.78765559
v -6.73249953 17.09039295 -0.10130620
v -7.36465318 16.51992810 -1.78765559
v -7.36465318 16.51992810 -0.10130620
v -6.75959615 16.49250651 -1.78765559
v -6.75959615 16.49250651 -0.10130620
v -6.47585831 -40.05634960 -2.65383619
v -6.47585831 -40.05634960 -1.27248532
v -6.55249305 -40.72042670 -2.65383619
v -6.55249305 -40.72042670 -1.27248532
v -7.26514916 -39.96526514 -2.65383619
v -7.26514916 -39.96526514 -1.27248532
v -7.34178391 -40.62934224 -2.65383619
v -7.34178391 -40.62934224 -1.27248532
v -20.85402138 -11.66040528 -1.34004629
v -20.85402138 -11.66040528 -0.12541330
v -20.21739008 -11.66488462 -1.34004629
v -20.21739008 -11.66488462 -0.12541330
v -20.85951422 -12.44108004 -1.34004629
v -20.85951422 -12.44108004 -0.12541330
v -20.22288292 -12.44555938 -1.34004629
v -20.22288292 -12.44555938 -0.12541330
v -24.39826712 -17.29007953 -1.53225410
v -24.39826712 -17.29007953 0.14169610
v -25.03392556 -17.23341020 -1.53225410
v -25.03392556 -17.23341020 0.14169610
v -24.34566733 -16.70006911 -1.53225410
v -24.34566733 -16.70006911 0.14169610
v -24.98132578 -16.64339977 -1.53225410
v -24.98132578 -16.64339977 0.14169610
v -32.59793460 -16.02117358 -0.82081711
v -32.59793460 -16.02117358 0.56830513
v -32.00040559 -16.03461952 -0.82081711
v -32.00040559 -16.03461952 0.56830513
v -32.61160918 -16.62886315 -0.82081711
v -32.61160918 -16.62886315 0.56830513
v -32.01408017 -16.64230908 -0.82081711
v -32.01408017 -16.64230908 0.56830513
v 49.66481121 -8.57220889 -3.80220199
v 49.66481121 -8.57220889 -2.05940795
v 49.66290902 -9.18988757 -3.80220199
v 49.66290902 -9.18988757 -2.05940795
v 49.00208427 -8.57016797 -3.80220199
v 49.00208427 -8.57016797 -2.05940795
v 49.00018208 -9.18784665 -3.80220199
v 49.00018208 -9.18784665 -2.05940795
v -12.74519179 -27.34511832 -2.21867490
v -12.74519179 -27.34511832 -1.09550047
v -12.73565042 -27.93251029 -2.21867490
v -12.73565042 -27.93251029 -1.09550047
v -14.41312277 -27.37221154 -2.21867490
v -14.41312277 -27.37221154 -1.09550047
v -14.40358141 -27.95960351 -2.21867490
v -14.40358141 -27.95960351 -1.09550047
v -8.28195799 -46.90727339 -2.82116944
v -8.28195799 -46.90727339 -1.37146944
v -7.63332311 -46.79205584 -2.82116944
v -7.63332311 -46.79205584 -1.37146944
v -8.15396937 -47.62780500 -2.82116944
v -8.15396937 -47.62780500 -1.37146944
v -7.50533449 -47.51258745 -2.82116944
v -7.50533449 -47.51258745 -1.37146944
v -6.67521193 -38.32702875 -2.63927174
v -6.67521193 -38.32702875 -1.22780871
v -6.56957557 -39.00649853 -2.63927174
v -6.56957557 -39.00649853 -1.22780871
v -7.46563408 -38.44991474 -2.63927174
v -7.46563408 -38.44991474 -1.22780871
v -7.35999773 -39.12938452 -2.63927174
v -7.35999773 -39.12938452 -1.22780871
v -13.16235936 -28.59896897 -2.22870117
v -13.16235936 -28.59896897 -1.12172216
v -13.16510013 -29.15861841 -2.22870117
v -13.16510013 -29.15861841 -1.12172216
v -14.85653683 -28.59067206 -2.22870117
v -14.85653683 -28.59067206 -1.12172216
v -14.85927761 -29.15032150 -2.22870117
v -14.85927761 -29.15032150 -1.12172216
v -15.94377751 -23.17739449 -2.04152298
v -15.94377751 -23.17739449 -0.74494052
v -15.32287233 -23.15793942 -2.04152298
v -15.32287233 -23.15793942 -0.74494052
v -15.92224486 -23.86460544 -2.04152298
v -15.92224486 -23.86460544 -0.74494052
v -15.30133967 -23.84515037 -2.04152298
v -15.30133967 -23.84515037 -0.74494052
v -18.53609143 -49.71276407 -1.90323353
v -18.53609143 -49.71276407 -0.08794928
v -17.81976569 -49.82182930 -1.90323353
v -17.81976569 -49.82182930 -0.08794928
v -18.63824213 -50.38367607 -1.90323353
v -18.63824213 -50.38367607 -0.08794928
v -17.92191638 -50.49274130 -1.90323353
v -17.92191638 -50.49274130 -0.08794928
v -35.82567897 13.23294163 -0.54698992
v -35.82567897 13.23294163 1.01147938
v -35.77482610 13.86891289 -0.54698992
v -35.77482610 13.86891289 1.01147938
v -35.13867183 13.17800789 -0.54698992
v -35.13867183 13.17800789 1.01147938
v -35.08781896 13.81397914 -0.54698992
v -35.08781896 13.81397914 1.01147938
v -6.87768669 -47.86149912 -2.83138382
v -6.87768669 -47.86149912 -1.30097568
v -7.00486181 -48.52734045 -2.83138382
v -7.00486181 -48.52734045 -1.30097568
v -7.57252314 -47.72878595 -2.83138382
v -7.57252314 -47.72878595 -1.30097568
v -7.69969826 -48.39462729 -2.83138382
v -7.69969826 -48.39462729 -1.30097568
v -12.99507101 -28.72899270 -2.23521644
v -12.99507101 -28.72899270 -1.11191148
v -13.00262403 -29.30074619 -2.23521644
v -13.00262403 -29.30074619 -1.11191148
v -14.71839953 -28.70622707 -2.23521644
v -14.71839953 -28.70622707 -1.11191148
v -14.72595255 -29.27798057 -2.23521644
v -14.72595255 -29.27798057 -1.11191148
v -6.59857100 17.16115570 -1.82534456
v -6.59857100 17.16115570 -0.11943316
v -5.99765935 17.12991043 -1.82534456
v -5.99765935 17.12991043 -0.11943316
v -6.63001857 16.55635361 -1.82534456
v -6.63001857 16.55635361 -0.11943316
v -6.02910691 16.52510833 -1.82534456
v -6.02910691 16.52510833 -0.11943316
v -19.63752072 -33.06594087 -1.82388556
v -19.63752072 -33.06594087 -0.53712046
v -19.53212613 -32.47721222 -1.82388556
v -19.53212613 -32.47721222 -0.53712046
v -18.98505526 -33.18274566 -1.82388556
v -18.98505526 -33.18274566 -0.53712046
v -18.87966068 -32.59401701 -1.82388556
v -18.87966068 -32.59401701 -0.53712046
v -6.88263906 -40.23971554 -2.74493253
v -6.88263906 -40.23971554 -1.39374793
v -6.91227832 -40.89007140 -2.74493253
v -6.91227832 -40.89007140 -1.39374793
v -7.70769391 -40.20211457 -2.74493253
v -7.70769391 -40.20211457 -1.39374793
v -7.73733317 -40.85247043 -2.74493253
v -7.73733317 -40.85247043 -1.39374793
v -7.74781735 -46.34899080 -2.80906993
v -7.74781735 -46.34899080 -1.38324136
v -7.49659202 -46.95361326 -2.80906993
v -7.49659202 -46.95361326 -1.38324136
v -8.44010689 -46.63664248 -2.80906993
v -8.44010689 -46.63664248 -1.38324136
v -8.18888156 -47.24126494 -2.80906993
v -8.18888156 -47.24126494 -1.38324136
v -31.71132178 -17.46990065 -0.92270011
v -31.71132178 -17.46990065 0.46056217
v -32.29561246 -17.41809167 -0.92270011
v -32.29561246 -17.41809167 0.46056217
v -31.65778720 -16.86614906 -0.92270011
v -31.65778720 -16.86614906 0.46056217
v -32.24207788 -16.81434007 -0.92270011
v -32.24207788 -16.81434007 0.46056217
v -18.57940266 -32.76138846 -1.90071732
v -18.57940266 -32.76138846 -0.63140243
v -18.88217928 -33.26173450 -1.90071732
v -18.88217928 -33.26173450 -0.63140243
v -19.13135527 -32.42738293 -1.90071732
v -19.13135527 -32.42738293 -0.63140243
v -19.43413188 -32.92772897 -1.90071732
v -19.43413188 -32.92772897 -0.63140243
v -49.92816153 -5.15158805 0.17066997
v -49.92816153 -5.15158805 1.93967324
v -49.99576055 -5.76524730 0.17066997
v -49.99576055 -5.76524730 1.93967324
v -50.58109797 -5.07966237 0.17066997
v -50.58109797 -5.07966237 1.93967324
v -50.64869699 -5.69332161 0.17066997
v -50.64869699 -5.69332161 1.93967324
v -28.46842566 -13.87018068 -0.95353478
v -28.46842566 -13.87018068 0.28952008
v -28.20026114 -13.35585699 -0.95353478
v -28.20026114 -13.35585699 0.28952008
v -27.92179391 -14.15519038 -0.95353478
v -27.92179391 -14.15519038 0.28952008
v -27.65362939 -13.64086669 -0.95353478
v -27.65362939 -13.64086669 0.28952008
v -23.90885840 -15.61171132 -1.44206023
v -23.90885840 -15.61171132 -0.02861023
v -23.86894074 -16.21909939 -1.44206023
v -23.86894074 -16.21909939 -0.02861023
v -24.55674896 -15.65429081 -1.44206023
v -24.55674896 -15.65429081 -0.02861023
v -24.51683130 -16.26167888 -1.44206023
v -24.51683130 -16.26167888 -0.02861023
v -8.76707055 -37.69246001 -2.65028268
v -8.76707055 -37.69246001 -1.18113345
v -8.61127229 -37.02829776 -2.65028268
v -8.61127229 -37.02829776 -1.18113345
v -8.02042632 -37.86760678 -2.65028268
v -8.02042632 -37.86760678 -1.18113345
v -7.86462806 -37.20344453 -2.65028268
v -7.86462806 -37.20344453 -1.18113345
v -32.34146125 -16.60976362 -0.86292416
v -32.34146125 -16.60976362 0.44640380
v -31.75622087 -16.60942179 -0.86292416
v -31.75622087 -16.60942179 0.44640380
v -32.34109968 -17.22880453 -0.86292416
v -32.34109968 -17.22880453 0.44640380
v -31.75585930 -17.22846270 -0.86292416
v -31.75585930 -17.22846270 0.44640380
v -24.64349651 -15.58665352 -1.40937281
v -24.64349651 -15.58665352 -0.02850425
v -24.02421736 -15.63597586 -1.40937281
v -24.02421736 -15.63597586 -0.02850425
v -24.69795061 -16.27036570 -1.40937281
v -24.69795061 -16.27036570 -0.02850425
v -24.07867145 -16.31968804 -1.40937281
v -24.07867145 -16.31968804 -0.02850425
v -24.55213069 -17.31504888 -1.45937443
v -24.55213069 -17.31504888 -0.04716730
v -25.17334334 -17.21059599 -1.45937443
v -25.17334334 -17.21059599 -0.04716730
v -24.43853410 -16.63945589 -1.45937443
v -24.43853410 -16.63945589 -0.04716730
v -25.05974675 -16.53500300 -1.45937443
v -25.05974675 -16.53500300 -0.04716730
v -9.49946893 -50.33279116 -2.55668449
v -9.49946893 -50.33279116 -0.83107853
v -8.83912903 -50.07386830 -2.55668449
v -8.83912903 -50.07386830 -0.83107853
v -9.23913330 -50.99673411 -2.55668449
v -9.23913330 -50.99673411 -0.83107853
v -8.57879340 -50.73781126 -2.55668449
v -8.57879340 -50.73781126 -0.83107853
v -19.57832959 -33.31864378 -1.88583690
v -19.57832959 -33.31864378 -0.61051863
v -19.68903901 -32.75073615 -1.88583690
v -19.68903901 -32.75073615 -0.61051863
v -18.94542144 -33.19526300 -1.88583690
v -18.94542144 -33.19526300 -0.61051863
v -19.05613085 -32.62735536 -1.88583690
v -19.05613085 -32.62735536 -0.61051863
v -32.02514794 13.09659818 -0.70390499
v -32.02514794 13.09659818 1.01608789
v -32.07900941 12.41334950 -0.70390499
v -32.07900941 12.41334950 1.01608789
v -32.76011718 13.15453685 -0.70390499
v -32.76011718 13.15453685 1.01608789
v -32.81397865 12.47128818 -0.70390499
v -32.81397865 12.47128818 1.01608789
v -46.59336720 -6.85273443 -0.00218934
v -46.59336720 -6.85273443 1.68853289
v -46.81920959 -7.45852510 -0.00218934
v -46.81920959 -7.45852510 1.68853289
v -47.15449952 -6.64354094 -0.00218934
v -47.15449952 -6.64354094 1.68853289
v -47.38034191 -7.24933161 -0.00218934
v -47.38034191 -7.24933161 1.68853289
v 39.67987161 -8.34039993 -3.33770531
v 39.67987161 -8.34039993 -1.59178144
v 39.67580539 -8.94948413 -3.33770531
v 39.67580539 -8.94948413 -1.59178144
v 38.95226163 -8.33554242 -3.33770531
v 38.95226163 -8.33554242 -1.59178144
v 38.94819540 -8.94462662 -3.33770531
v 38.94819540 -8.94462662 -1.59178144
v -19.36319552 -49.52149048 -1.91044152
v -19.36319552 -49.52149048 -0.06591475
v -18.65310920 -49.63014173 -1.91044152
v -18.65310920 -49.63014173 -0.06591475
v -19.46632134 -50.19546557 -1.91044152
v -19.46632134 -50.19546557 -0.06591475
v -18.75623502 -50.30411682 -1.91044152
v -18.75623502 -50.30411682 -0.06591475
v 50.21782100 -10.67144192 -3.74389225
v 50.21782100 -10.67144192 -2.07955068
v 50.21969913 -11.24783979 -3.74389225
v 50.21969913 -11.24783979 -2.07955068
v 49.60691525 -10.67343248 -3.74389225
v 49.60691525 -10.67343248 -2.07955068
v 49.60879338 -11.24983036 -3.74389225
v 49.60879338 -11.24983036 -2.07955068
v -11.16665777 -36.41639103 -2.36490083
v -11.16665777 -36.41639103 -0.66382742
v -10.49572594 -36.45102786 -2.36490083
v -10.49572594 -36.45102786 -0.66382742
v -11.20195168 -37.10005094 -2.36490083
v -11.20195168 -37.10005094 -0.66382742
v -10.53101985 -37.13468776 -2.36490083
v -10.53101985 -37.13468776 -0.66382742
v -12.74519179 -27.34511832 -2.21867490
v -12.74519179 -27.34511832 -1.09550047
v -12.73565042 -27.93251029 -2.21867490
v -12.73565042 -27.93251029 -1.09550047
v -14.41312277 -27.37221154 -2.21867490
v -14.41312277 -27.37221154 -1.09550047
v -14.40358141 -27.95960351 -2.21867490
v -14.40358141 -27.95960351 -1.09550047
v -4.75776867 -30.12575746 -2.65847206
v -4.75776867 -30.12575746 -1.14081597
v -4.72911744 -29.48535264 -2.65847206
v -4.72911744 -29.48535264 -1.14081597
v -4.01722808 -30.15888869 -2.65847206
v -4.01722808 -30.15888869 -1.14081597
v -3.98857685 -29.51848388 -2.65847206
v -3.98857685 -29.51848388 -1.14081597
v -9.22565494 -54.00159583 -2.77606243
v -9.22565494 -54.00159583 -1.06295735
v -9.74693260 -54.49681260 -2.77606243
v -9.74693260 -54.49681260 -1.06295735
v -9.71094551 -53.49076674 -2.77606243
v -9.71094551 -53.49076674 -1.06295735
v -10.23222317 -53.98598351 -2.77606243
v -10.23222317 -53.98598351 -1.06295735
v -13.16235936 -28.59896897 -2.22870117
v -13.16235936 -28.59896897 -1.12172216
v -13.16510013 -29.15861841 -2.22870117
v -13.16510013 -29.15861841 -1.12172216
v -14.85653683 -28.59067206 -2.22870117
v -14.85653683 -28.59067206 -1.12172216
v -14.85927761 -29.15032150 -2.22870117
v -14.85927761 -29.15032150 -1.12172216
v -7.17167638 -47.30140844 -2.97991812
v -7.17167638 -47.30140844 -1.53461587
v -7.21579239 -47.96942696 -2.97991812
v -7.21579239 -47.96942696 -1.53461587
v -7.89220932 -47.25382438 -2.97991812
v -7.89220932 -47.25382438 -1.53461587
v -7.93632533 -47.92184290 -2.97991812
v -7.93632533 -47.92184290 -1.53461587
v -9.50341911 -37.01497928 -2.45235443
v -9.50341911 -37.01497928 -0.84184217
v -8.90321278 -36.85224396 -2.45235443
v -8.90321278 -36.85224396 -0.84184217
v -9.33512951 -37.63567108 -2.45235443
v -9.33512951 -37.63567108 -0.84184217
v -8.73492318 -37.47293576 -2.45235443
v -8.73492318 -37.47293576 -0.84184217
v -26.13968762 -16.02452565 -1.47859144
v -26.13968762 -16.02452565 -0.06302214
v -25.62489285 -15.64636174 -1.47859144
v -25.62489285 -15.64636174 -0.06302214
v -25.69384800 -16.63144741 -1.47859144
v -25.69384800 -16.63144741 -0.06302214
v -25.17905323 -16.25328349 -1.47859144
v -25.17905323 -16.25328349 -0.06302214
v -20.76564886 -11.51903579 -1.31300437
v -20.76564886 -11.51903579 -0.10129368
v -20.17994773 -11.52067389 -1.31300437
v -20.17994773 -11.52067389 -0.10129368
v -20.76763833 -12.23037133 -1.31300437
v -20.76763833 -12.23037133 -0.10129368
v -20.18193720 -12.23200944 -1.31300437
v -20.18193720 -12.23200944 -0.10129368
v -8.18092012 -51.22567788 -2.95027077
v -8.18092012 -51.22567788 -1.16978347
v -8.23913732 -51.95989012 -2.95027077
v -8.23913732 -51.95989012 -1.16978347
v -8.88194880 -51.17009188 -2.95027077
v -8.88194880 -51.17009188 -1.16978347
v -8.94016600 -51.90430411 -2.95027077
v -8.94016600 -51.90430411 -1.16978347
v -23.72379227 -12.56734343 -1.29657412
v -23.72379227 -12.56734343 -0.07598221
v -23.10711794 -12.55876213 -1.29657412
v -23.10711794 -12.55876213 -0.07598221
v -23.71404905 -13.26751655 -1.29657412
v -23.71404905 -13.26751655 -0.07598221
v -23.09737472 -13.25893526 -1.29657412
v -23.09737472 -13.25893526 -0.07598221
v -25.21229649 9.07771549 -1.05250049
v -25.21229649 9.07771549 0.66920865
v -25.14755525 9.71475717 -1.05250049
v -25.14755525 9.71475717 0.66920865
v -24.44123564 8.99935416 -1.05250049
v -24.44123564 8.99935416 0.66920865
v -24.37649441 9.63639584 -1.05250049
v -24.37649441 9.63639584 0.66920865
v -20.85402138 -11.66040528 -1.34004629
v -20.85402138 -11.66040528 -0.12541330
v -20.21739008 -11.66488462 -1.34004629
v -20.21739008 -11.66488462 -0.12541330
v -20.85951422 -12.44108004 -1.34004629
v -20.85951422 -12.44108004 -0.12541330
v -20.22288292 -12.44555938 -1.34004629
v -20.22288292 -12.44555938 -0.12541330
v -4.03281176 -28.71425170 -2.75743556
v -4.03281176 -28.71425170 -1.15126443
v -4.05992406 -29.38751769 -2.75743556
v -4.05992406 -29.38751769 -1.15126443
v -4.74879176 -28.68541932 -2.75743556
v -4.74879176 -28.68541932 -1.15126443
v -4.77590406 -29.35868531 -2.75743556
v -4.77590406 -29.35868531 -1.15126443
v -6.56251692 -37.64690163 -2.81574291
v -6.56251692 -37.64690163 -1.45672470
v -6.54197022 -36.98741604 -2.81574291
v -6.54197022 -36.98741604 -1.45672470
v -5.69718078 -37.67386173 -2.81574291
v -5.69718078 -37.67386173 -1.45672470
v -5.67663408 -37.01437615 -2.81574291
v -5.67663408 -37.01437615 -1.45672470
v -50.43578133 10.82821689 0.39202023
v -50.43578133 10.82821689 1.99082279
v -50.59642101 8.97320320 0.39202023
v -50.59642101 8.97320320 1.99082279
v -54.93269276 11.21763848 0.39202023
v -54.93269276 11.21763848 1.99082279
v -55.09333244 9.36262478 0.39202023
v -55.09333244 9.36262478 1.99082279
v -32.35167887 13.93591167 -0.70265079
v -32.35167887 13.93591167 0.92114472
v -32.38368726 13.28737971 -0.70265079
v -32.38368726 13.28737971 0.92114472
v -33.08111072 13.97191289 -0.70265079
v -33.08111072 13.97191289 0.92114472
v -33.11311911 13.32338093 -0.70265079
v -33.11311911 13.32338093 0.92114472
v 39.78468464 -8.46541350 -3.36398327
v 39.78468464 -8.46541350 -1.61449230
v 39.78219835 -9.07766255 -3.36398327
v 39.78219835 -9.07766255 -1.61449230
v 39.03307112 -8.46236126 -3.36398327
v 39.03307112 -8.46236126 -1.61449230
v 39.03058483 -9.07461030 -3.36398327
v 39.03058483 -9.07461030 -1.61449230
f 2 4 1
f 5 2 1
f 1 4 3
f 3 5 1
f 2 8 4
f 6 2 5
f 6 8 2
f 4 8 3
f 7 5 3
f 3 8 7
f 7 6 5
f 8 6 7
f 10 12 9
f 13 10 9
f 9 12 11
f 11 13 9
f 10 16 12
f 14 10 13
f 14 16 10
f 12 16 11
f 15 13 11
f 11 16 15
f 15 14 13
f 16 14 15
f 18 20 17
f 21 18 17
f 17 20 19
f 19 21 17
f 18 24 20
f 22 18 21
f 22 24 18
f 20 24 19
f 23 21 19
f 19 24 23
f 23 22 21
f 24 22 23
f 26 28 25
f 29 26 25
f 25 28 27
f 27 29 25
f 26 32 28
f 30 26 29
f 30 32 26
f 28 32 27
f 31 29 27
f 27 32 31
f 31 30 29
f 32 30 31
f 34 36 33
f 37 34 33
f 33 36 35
f 35 37 33
f 34 40 36
f 38 34 37
f 38 40 34
f 36 40 35
f 39 37 35
f 35 40 39
f 39 38 37
f 40 38 39
f 42 44 41
f 45 42 41
f 41 44 43
f 43 45 41
f 42 48 44
f 46 42 45
f 46 48 42
f 44 48 43
f 47 45 43
f 43 48 47
f 47 46 45
f 48 46 47
f 50 52 49
f 53 50 49
f 49 52 51
f 51 53 49
f 50 56 52
f 54 50 53
f 54 56 50
f 52 56 51
f 55 53 51
f 51 56 55
f 55 54 53
f 56 54 55
f 58 60 57
f 61 58 57
f 57 60 59
f 59 61 57
f 58 64 60
f 62 58 61
f 62 64 58
f 60 64 59
f 63 61 59
f 59 64 63
f 63 62 61
f 64 62 63
f 66 68 65
f 69 66 65
f 65 68 67
f 67 69 65
f 66 72 68
f 70 66 69
f 70 72 66
f 68 72 67
f 71 69 67
f 67 72 71
f 71 70 69
f 72 70 71
f 74 76 73
f 77 74 73
f 73 76 75
f 75 77 73
f 74 80 76
f 78 74 77
f 78 80 74
f 76 80 75
f 79 77 75
f 75 80 79
f 79 78 77
f 80 78 79
f 82 84 81
f 85 82 81
f 81 84 83
f 83 85 81
f 82 88 84
f 86 82 85
f 86 88 82
f 84 88 83
f 87 85 83
f 83 88 87
f 87 86 85
f 88 86 87
f 90 92 89
f 93 90 89
f 89 92 91
f 91 93 89
f 90 96 92
f 94 90 93
f 94 96 90
f 92 96 91
f 95 93 91
f 91 96 95
f 95 94 93
f 96 94 95
f 98 100 97
f 101 98 97
f 97 100 99
f 99 101 97
f 98 104 100
f 102 98 101
f 102 104 98
f 100 104 99
f 103 101 99
f 99 104 103
f 103 102 101
f 104 102 103
f 106 108 105
f 109 106 105
f 105 108 107
f 107 109 105
f 106 112 108
f 110 106 109
f 110 112 106
f 108 112 107
f 111 109 107
f 107 112 111
f 111 110 109
f 112 110 111
f 114 116 113
f 117 114 113
f 113 116 115
f 115 117 113
f 114 120 116
f 118 114 117
f 118 120 114
f 116 120 115
f 119 117 115
f 115 120 119
f 119 118 117
f 120 118 119
f 122 124 121
f 125 122 121
f 121 124 123
f 123 125 121
f 122 128 124
f 126 122 125
f 126 128 122
f 124 128 123
f 127 125 123
f 123 128 127
f 127 126 125
f 128 126 127
f 130 132 129
f 133 130 129
f 129 132 131
f 131 133 129
f 130 136 132
f 134 130 133
f 134 136 130
f 132 136 131
f 135 133 131
f 131 136 135
f 135 134 133
f 136 134 135
f 138 140 137
f 141 138 137
f 137 140 139
f 139 141 137
f 138 144 140
f 142 138 141
f 142 144 138
f 140 144 139
f 143 141 139
f 139 144 143
f 143 142 141
f 144 142 143
f 146 148 145
f 149 146 145
f 145 148 147
f 147 149 145
f 146 152 148
f 150 146 149
f 150 152 146
f 148 152 147
f 151 149 147
f 147 152 151
f 151 150 149
f 152 150 151
f 154 156 153
f 157 154 153
f 153 156 155
f 155 157 153
f 154 160 156
f 158 154 157
f 158 160 154
f 156 160 155
f 159 157 155
f 155 160 159
f 159 158 157
f 160 158 159
f 162 164 161
f 165 162 161
f 161 164 163
f 163 165 161
f 162 168 164
f 166 162 165
f 166 168 162
f 164 168 163
f 167 165 163
f 163 168 167
f 167 166 165
f 168 166 167
f 170 172 169
f 173 170 169
f 169 172 171
f 171 173 169
f 170 176 172
f 174 170 173
f 174 176 170
f 172 176 171
f 175 173 171
f 171 176 175
f 175 174 173
f 176 174 175
f 178 180 177
f 181 178 177
f 177 180 179
f 179 181 177
f 178 184 180
f 182 178 181
f 182 184 178
f 180 184 179
f 183 181 179
f 179 184 183
f 183 182 181
f 184 182 183
f 186 188 185
f 189 186 185
f 185 188 187
f 187 189 185
f 186 192 188
f 190 186 189
f 190 192 186
f 188 192 187
f 191 189 187
f 187 192 191
f 191 190 189
f 192 190 191
f 194 196 193
f 197 194 193
f 193 196 195
f 195 197 193
f 194 200 196
f 198 194 197
f 198 200 194
f 196 200 195
f 199 197 195
f 195 200 199
f 199 198 197
f 200 198 199
f 202 204 201
f 205 202 201
f 201 204 203
f 203 205 201
f 202 208 204
f 206 202 205
f 206 208 202
f 204 208 203
f 207 205 203
f 203 208 207
f 207 206 205
f 208 206 207
f 210 212 209
f 213 210 209
f 209 212 211
f 211 213 209
f 210 216 212
f 214 210 213
f 214 216 210
f 212 216 211
f 215 213 211
f 211 216 215
f 215 214 213
f 216 214 215
f 218 220 217
f 221 218 217
f 217 220 219
f 219 221 217
f 218 224 220
f 222 218 221
f 222 224 218
f 220 224 219
f 223 221 219
f 219 224 223
f 223 222 221
f 224 222 223
f 226 228 225
f 229 226 225
f 225 228 227
f 227 229 225
f 226 232 228
f 230 226 229
f 230 232 226
f 228 232 227
f 231 229 227
f 227 232 231
f 231 230 229
f 232 230 231
f 234 236 233
f 237 234 233
f 233 236 235
f 235 237 233
f 234 240 236
f 238 234 237
f 238 240 234
f 236 240 235
f 239 237 235
f 235 240 239
f 239 238 237
f 240 238 239
f 242 244 241
f 245 242 241
f 241 244 243
f 243 245 241
f 242 248 244
f 246 242 245
f 246 248 242
f 244 248 243
f 247 245 243
f 243 248 247
f 247 246 245
f 248 246 247
f 250 252 249
f 253 250 249
f 249 252 251
f 251 253 249
f 250 256 252
f 254 250 253
f 254 256 250
f 252 256 251
f 255 253 251
f 251 256 255
f 255 254 253
f 256 254 255
f 258 260 257
f 261 258 257
f 257 260 259
f 259 261 257
f 258 264 260
f 262 258 261
f 262 264 258
f 260 264 259
f 263 261 259
f 259 264 263
f 263 262 261
f 264 262 263
f 266 268 265
f 269 266 265
f 265 268 267
f 267 269 265
f 266 272 268
f 270 266 269
f 270 272 266
f 268 272 267
f 271 269 267
f 267 272 271
f 271 270 269
f 272 270 271
f 274 276 273
f 277 274 273
f 273 276 275
f 275 277 273
f 274 280 276
f 278 274 277
f 278 280 274
f 276 280 275
f 279 277 275
f 275 280 279
f 279 278 277
f 280 278 279
f 282 284 281
f 285 282 281
f 281 284 283
f 283 285 281
f 282 288 284
f 286 282 285
f 286 288 282
f 284 288 283
f 287 285 283
f 283 288 287
f 287 286 285
f 288 286 287
f 290 292 289
f 293 290 289
f 289 292 291
f 291 293 289
f 290 296 292
f 294 290 293
f 294 296 290
f 292 296 291
f 295 293 291
f 291 296 295
f 295 294 293
f 296 294 295
f 298 300 297
f 301 298 297
f 297 300 299
f 299 301 297
f 298 304 300
f 302 298 301
f 302 304 298
f 300 304 299
f 303 301 299
f 299 304 303
f 303 302 301
f 304 302 303
f 306 308 305
f 309 306 305
f 305 308 307
f 307 309 305
f 306 312 308
f 310 306 309
f 310 312 306
f 308 312 307
f 311 309 307
f 307 312 311
f 311 310 309
f 312 310 311
f 314 316 313
f 317 314 313
f 313 316 315
f 315 317 313
f 314 320 316
f 318 314 317
f 318 320 314
f 316 320 315
f 319 317 315
f 315 320 319
f 319 318 317
f 320 318 319
f 322 324 321
f 325 322 321
f 321 324 323
f 323 325 321
f 322 328 324
f 326 322 325
f 326 328 322
f 324 328 323
f 327 325 323
f 323 328 327
f 327 326 325
f 328 326 327
f 330 332 329
f 333 330 329
f 329 332 331
f 331 333 329
f 330 336 332
f 334 330 333
f 334 336 330
f 332 336 331
f 335 333 331
f 331 336 335
f 335 334 333
f 336 334 335
f 338 340 337
f 341 338 337
f 337 340 339
f 339 341 337
f 338 344 340
f 342 338 341
f 342 344 338
f 340 344 339
f 343 341 339
f 339 344 343
f 343 342 341
f 344 342 343
f 346 348 345
f 349 346 345
f 345 348 347
f 347 349 345
f 346 352 348
f 350 346 349
f 350 352 346
f 348 352 347
f 351 349 347
f 347 352 351
f 351 350 349
f 352 350 351
f 354 356 353
f 357 354 353
f 353 356 355
f 355 357 353
f 354 360 356
f 358 354 357
f 358 360 354
f 356 360 355
f 359 357 355
f 355 360 359
f 359 358 357
f 360 358 359
f 362 364 361
f 365 362 361
f 361 364 363
f 363 365 361
f 362 368 364
f 366 362 365
f 366 368 362
f 364 368 363
f 367 365 363
f 363 368 367
f 367 366 365
f 368 366 367
f 370 372 369
f 373 370 369
f 369 372 371
f 371 373 369
f 370 376 372
f 374 370 373
f 374 376 370
f 372 376 371
f 375 373 371
f 371 376 375
f 375 374 373
f 376 374 375
f 378 380 377
f 381 378 377
f 377 380 379
f 379 381 377
f 378 384 380
f 382 378 381
f 382 384 378
f 380 384 379
f 383 381 379
f 379 384 383
f 383 382 381
f 384 382 383
f 386 388 385
f 389 386 385
f 385 388 387
f 387 389 385
f 386 392 388
f 390 386 389
f 390 392 386
f 388 392 387
f 391 389 387
f 387 392 391
f 391 390 389
f 392 390 391
f 394 396 393
f 397 394 393
f 393 396 395
f 395 397 393
f 394 400 396
f 398 394 397
f 398 400 394
f 396 400 395
f 399 397 395
f 395 400 399
f 399 398 397
f 400 398 399
f 402 404 401
f 405 402 401
f 401 404 403
f 403 405 401
f 402 408 404
f 406 402 405
f 406 408 402
f 404 408 403
f 407 405 403
f 403 408 407
f 407 406 405
f 408 406 407
f 410 412 409
f 413 410 409
f 409 412 411
f 411 413 409
f 410 416 412
f 414 410 413
f 414 416 410
f 412 416 411
f 415 413 411
f 411 416 415
f 415 414 413
f 416 414 415
f 418 420 417
f 421 418 417
f 417 420 419
f 419 421 417
f 418 424 420
f 422 418 421
f 422 424 418
f 420 424 419
f 423 421 419
f 419 424 423
f 423 422 421
f 424 422 423
f 426 428 425
f 429 426 425
f 425 428 427
f 427 429 425
f 426 432 428
f 430 426 429
f 430 432 426
f 428 432 427
f 431 429 427
f 427 432 431
f 431 430 429
f 432 430 431
f 434 436 433
f 437 434 433
f 433 436 435
f 435 437 433
f 434 440 436
f 438 434 437
f 438 440 434
f 436 440 435
f 439 437 435
f 435 440 439
f 439 438 437
f 440 438 439
f 442 444 441
f 445 442 441
f 441 444 443
f 443 445 441
f 442 448 444
f 446 442 445
f 446 448 442
f 444 448 443
f 447 445 443
f 443 448 447
f 447 446 445
f 448 446 447
f 450 452 449
f 453 450 449
f 449 452 451
f 451 453 449
f 450 456 452
f 454 450 453
f 454 456 450
f 452 456 451
f 455 453 451
f 451 456 455
f 455 454 453
f 456 454 455
f 458 460 457
f 461 458 457
f 457 460 459
f 459 461 457
f 458 464 460
f 462 458 461
f 462 464 458
f 460 464 459
f 463 461 459
f 459 464 463
f 463 462 461
f 464 462 463
f 466 468 465
f 469 466 465
f 465 468 467
f 467 469 465
f 466 472 468
f 470 466 469
f 470 472 466
f 468 472 467
f 471 469 467
f 467 472 471
f 471 470 469
f 472 470 471
f 474 476 473
f 477 474 473
f 473 476 475
f 475 477 473
f 474 480 476
f 478 474 477
f 478 480 474
f 476 480 475
f 479 477 475
f 475 480 479
f 479 478 477
f 480 478 479
f 482 484 481
f 485 482 481
f 481 484 483
f 483 485 481
f 482 488 484
f 486 482 485
f 486 488 482
f 484 488 483
f 487 485 483
f 483 488 487
f 487 486 485
f 488 486 487
f 490 492 489
f 493 490 489
f 489 492 491
f 491 493 489
f 490 496 492
f 494 490 493
f 494 496 490
f 492 496 491
f 495 493 491
f 491 496 495
f 495 494 493
f 496 494 495
f 498 500 497
f 501 498 497
f 497 500 499
f 499 501 497
f 498 504 500
f 502 498 501
f 502 504 498
f 500 504 499
f 503 501 499
f 499 504 503
f 503 502 501
f 504 502 503
f 506 508 505
f 509 506 505
f 505 508 507
f 507 509 505
f 506 512 508
f 510 506 509
f 510 512 506
f 508 512 507
f 511 509 507
f 507 512 511
f 511 510 509
f 512 510 511
f 514 516 513
f 517 514 513
f 513 516 515
f 515 517 513
f 514 520 516
f 518 514 517
f 518 520 514
f 516 520 515
f 519 517 515
f 515 520 519
f 519 518 517
f 520 518 519
f 522 524 521
f 525 522 521
f 521 524 523
f 523 525 521
f 522 528 524
f 526 522 525
f 526 528 522
f 524 528 523
f 527 525 523
f 523 528 527
f 527 526 525
f 528 526 527
f 530 532 529
f 533 530 529
f 529 532 531
f 531 533 529
f 530 536 532
f 534 530 533
f 534 536 530
f 532 536 531
f 535 533 531
f 531 536 535
f 535 534 533
f 536 534 535
f 538 540 537
f 541 538 537
f 537 540 539
f 539 541 537
f 538 544 540
f 542 538 541
f 542 544 538
f 540 544 539
f 543 541 539
f 539 544 543
f 543 542 541
f 544 542 543
f 546 548 545
f 549 546 545
f 545 548 547
f 547 549 545
f 546 552 548
f 550 546 549
f 550 552 546
f 548 552 547
f 551 549 547
f 547 552 551
f 551 550 549
f 552 550 551
f 554 556 553
f 557 554 553
f 553 556 555
f 555 557 553
f 554 560 556
f 558 554 557
f 558 560 554
f 556 560 555
f 559 557 555
f 555 560 559
f 559 558 557
f 560 558 559
f 562 564 561
f 565 562 561
f 561 564 563
f 563 565 561
f 562 568 564
f 566 562 565
f 566 568 562
f 564 568 563
f 567 565 563
f 563 568 567
f 567 566 565
f 568 566 567
f 570 572 569
f 573 570 569
f 569 572 571
f 571 573 569
f 570 576 572
f 574 570 573
f 574 576 570
f 572 576 571
f 575 573 571
f 571 576 575
f 575 574 573
f 576 574 575
f 578 580 577
f 581 578 577
f 577 580 579
f 579 581 577
f 578 584 580
f 582 578 581
f 582 584 578
f 580 584 579
f 583 581 579
f 579 584 583
f 583 582 581
f 584 582 583
f 586 588 585
f 589 586 585
f 585 588 587
f 587 589 585
f 586 592 588
f 590 586 589
f 590 592 586
f 588 592 587
f 591 589 587
f 587 592 591
f 591 590 589
f 592 590 591
f 594 596 593
f 597 594 593
f 593 596 595
f 595 597 593
f 594 600 596
f 598 594 597
f 598 600 594
f 596 600 595
f 599 597 595
f 595 600 599
f 599 598 597
f 600 598 599
f 602 604 601
f 605 602 601
f 601 604 603
f 603 605 601
f 602 608 604
f 606 602 605
f 606 608 602
f 604 608 603
f 607 605 603
f 603 608 607
f 607 606 605
f 608 606 607
f 610 612 609
f 613 610 609
f 609 612 611
f 611 613 609
f 610 616 612
f 614 610 613
f 614 616 610
f 612 616 611
f 615 613 611
f 611 616 615
f 615 614 613
f 616 614 615
f 618 620 617
f 621 618 617
f 617 620 619
f 619 621 617
f 618 624 620
f 622 618 621
f 622 624 618
f 620 624 619
f 623 621 619
f 619 624 623
f 623 622 621
f 624 622 623
f 626 628 625
f 629 626 625
f 625 628 627
f 627 629 625
f 626 632 628
f 630 626 629
f 630 632 626
f 628 632 627
f 631 629 627
f 627 632 631
f 631 630 629
f 632 630 631
f 634 636 633
f 637 634 633
f 633 636 635
f 635 637 633
f 634 640 636
f 638 634 637
f 638 640 634
f 636 640 635
f 639 637 635
f 635 640 639
f 639 638 637
f 640 638 639
f 642 644 641
f 645 642 641
f 641 644 643
f 643 645 641
f 642 648 644
f 646 642 645
f 646 648 642
f 644 648 643
f 647 645 643
f 643 648 647
f 647 646 645
f 648 646 647
f 650 652 649
f 653 650 649
f 649 652 651
f 651 653 649
f 650 656 652
f 654 650 653
f 654 656 650
f 652 656 651
f 655 653 651
f 651 656 655
f 655 654 653
f 656 654 655
f 658 660 657
f 661 658 657
f 657 660 659
f 659 661 657
f 658 664 660
f 662 658 661
f 662 664 658
f 660 664 659
f 663 661 659
f 659 664 663
f 663 662 661
f 664 662 663
f 666 668 665
f 669 666 665
f 665 668 667
f 667 669 665
f 666 672 668
f 670 666 669
f 670 672 666
f 668 672 667
f 671 669 667
f 667 672 671
f 671 670 669
f 672 670 671
f 674 676 673
f 677 674 673
f 673 676 675
f 675 677 673
f 674 680 676
f 678 674 677
f 678 680 674
f 676 680 675
f 679 677 675
f 675 680 679
f 679 678 677
f 680 678 679
f 682 684 681
f 685 682 681
f 681 684 683
f 683 685 681
f 682 688 684
f 686 682 685
f 686 688 682
f 684 688 683
f 687 685 683
f 683 688 687
f 687 686 685
f 688 686 687
f 690 692 689
f 693 690 689
f 689 692 691
f 691 693 689
f 690 696 692
f 694 690 693
f 694 696 690
f 692 696 691
f 695 693 691
f 691 696 695
f 695 694 693
f 696 694 695